<svg width="234" height="234" viewBox="0 0 234 234" fill="none" xmlns="http://www.w3.org/2000/svg">
<path d="M49.6075 65.0853L45.9529 91.8688L88.187 97.6316L91.8416 70.8481L49.6075 65.0853Z" fill="#EBEBEB"/>
<path d="M49.6079 65.0801C51.0915 66.9521 52.6171 68.7445 54.1147 70.5838C55.6123 72.423 57.1568 74.2014 58.6918 75.9892C60.2877 77.8612 61.8976 79.7332 63.5028 81.563C63.5543 81.6192 63.5964 81.68 63.6479 81.7409C65.0737 83.3695 66.5043 84.9966 67.9395 86.6221L68.1501 86.8561L68.4121 86.6876C70.228 85.5052 72.0407 84.3164 73.8503 83.1215C73.9148 83.0842 73.9773 83.0436 74.0375 82.9998C76.0936 81.652 78.1403 80.2901 80.1777 78.9142C82.1246 77.6038 84.0808 76.27 86.023 74.9362C87.9652 73.6024 89.9121 72.2405 91.8402 70.8412C89.8372 71.9924 87.8529 73.2139 85.8639 74.4026C83.8749 75.5914 81.8905 76.8316 79.9109 78.0764C77.7082 79.4461 75.5055 80.8392 73.3028 82.2557C71.6523 83.304 70.0018 84.3586 68.3513 85.4194C67.055 83.9592 65.7492 82.4897 64.4388 81.0436C62.6979 79.1029 60.9491 77.1716 59.1926 75.2497C57.6138 73.5275 56.0304 71.8115 54.4424 70.1017C52.809 68.4356 51.2272 66.7274 49.6079 65.0801Z" fill="white"/>
<path d="M73.1483 82.8594C73.1651 82.8755 73.1807 82.8927 73.1951 82.9109L73.7848 83.5661C74.7208 84.605 75.6896 85.6066 76.677 86.5894C77.8845 87.7968 79.1247 88.9715 80.3742 90.1368C81.6238 91.3021 82.8968 92.4253 84.2025 93.5298C85.5082 94.6343 86.8233 95.7294 88.1992 96.7496C87.0713 95.4533 85.8592 94.2271 84.6752 93.0056C83.4911 91.7842 82.2228 90.6235 80.9826 89.4629C79.7424 88.3022 78.4508 87.165 77.1497 86.0558C76.1154 85.1713 75.0578 84.3008 73.9673 83.4678C73.7177 83.2712 73.465 83.0794 73.2092 82.8922L73.1483 82.8594Z" fill="white"/>
<path d="M46.1682 91.0213C47.7735 90.4036 49.3413 89.7063 50.8857 88.9902C52.4301 88.2742 53.9604 87.5067 55.4861 86.7391C57.0118 85.9716 58.5141 85.1573 59.9976 84.3149C61.2097 83.6316 62.4078 82.9109 63.5825 82.1808C63.8399 82.0217 64.0879 81.8626 64.336 81.7128L64.3921 81.6754C64.3691 81.6813 64.345 81.6813 64.3219 81.6754L63.4327 82.0357C62.1644 82.5459 60.9196 83.1075 59.6887 83.6784C58.1397 84.3991 56.614 85.1573 55.093 85.9342C53.572 86.7111 52.0697 87.516 50.5815 88.3631C49.0932 89.2102 47.605 90.0713 46.1682 91.0213Z" fill="white"/>
<path d="M60.3705 26.3265L25.4418 35.1908L31.0631 57.341L65.9919 48.4768L60.3705 26.3265Z" fill="#EBEBEB"/>
<path d="M25.4404 35.1889C27.1954 36.1811 28.9598 37.1077 30.7195 38.0718C32.4791 39.0359 34.2482 39.9438 36.0172 40.8798C37.8611 41.8439 39.7098 42.7846 41.5584 43.7252L41.7268 43.8188L46.6362 46.2852L46.8748 46.4022L47.0293 46.1869C48.0776 44.6846 49.1166 43.1777 50.1602 41.6707C50.1988 41.6196 50.2347 41.5664 50.2678 41.5116C51.4534 39.8081 52.6266 38.0921 53.7872 36.3636C54.901 34.7209 56.0102 33.0548 57.11 31.3934C58.2098 29.732 59.3049 28.0472 60.386 26.3437C59.1786 27.8788 58.0132 29.4653 56.8292 31.0237C55.6452 32.5822 54.4892 34.1874 53.3286 35.788C52.0369 37.5632 50.7499 39.3541 49.4675 41.1606C48.5097 42.5053 47.5503 43.8547 46.5894 45.2088C45.0918 44.46 43.6035 43.7346 42.1199 43.0139C40.1356 42.0404 38.1513 41.0795 36.167 40.131C34.3886 39.2839 32.6055 38.4415 30.8224 37.6178C29.0393 36.7942 27.2375 35.9658 25.4404 35.1889Z" fill="white"/>
<path d="M49.5331 41.652C49.5492 41.6631 49.5665 41.6725 49.5846 41.6801L50.2538 42.0077C51.3177 42.5225 52.3926 43.0061 53.4783 43.4585C54.8074 44.0294 56.1506 44.5536 57.4984 45.0684C58.8463 45.5832 60.2035 46.0652 61.5747 46.5192C62.946 46.9732 64.3266 47.4131 65.7306 47.7781C64.4342 47.1182 63.1144 46.5332 61.79 45.967C60.4656 45.4007 59.1084 44.8765 57.7652 44.3617C56.422 43.8469 55.0555 43.3602 53.6842 42.9062C52.5938 42.5412 51.4893 42.1902 50.3708 41.8813C50.1134 41.8064 49.856 41.7409 49.5939 41.6707L49.5331 41.652Z" fill="white"/>
<path d="M30.9675 56.628C32.0299 55.6405 33.0361 54.5969 34.0189 53.5392C35.0017 52.4815 35.9658 51.4051 36.9158 50.324C37.8658 49.243 38.7878 48.1198 39.6817 46.9919C40.4165 46.0559 41.1372 45.1199 41.8205 44.1839L42.2557 43.5708C42.2557 43.5708 42.2557 43.538 42.2885 43.524L42.2417 43.5661C42.0451 43.7533 41.8485 43.9358 41.6567 44.1277C40.8236 44.928 40.0233 45.761 39.2324 46.6081C38.2449 47.6611 37.2902 48.7422 36.3449 49.828C35.3995 50.9137 34.4729 52.0276 33.579 53.1601C32.6851 54.2927 31.7912 55.4112 30.9675 56.628Z" fill="white"/>
<path d="M205.122 122.386L169.332 126.584L171.994 149.281L207.784 145.083L205.122 122.386Z" fill="#EBEBEB"/>
<path d="M169.327 126.594C170.937 127.806 172.566 128.957 174.18 130.151C175.795 131.344 177.433 132.467 179.066 133.609C180.699 134.751 182.478 135.982 184.186 137.157L184.34 137.269C185.847 138.302 187.361 139.333 188.88 140.363L189.105 140.508L189.283 140.316C190.531 138.965 191.763 137.609 192.98 136.249C193.027 136.205 193.071 136.159 193.111 136.108C194.505 134.573 195.894 133.026 197.276 131.466C198.596 129.987 199.911 128.48 201.221 126.978C202.532 125.475 203.837 123.95 205.12 122.396C203.716 123.763 202.358 125.204 200.978 126.575C199.597 127.947 198.24 129.383 196.878 130.839C195.365 132.424 193.856 134.029 192.353 135.654C191.225 136.862 190.102 138.079 188.974 139.291C187.598 138.355 186.222 137.442 184.846 136.534C183.011 135.308 181.171 134.094 179.324 132.893C177.676 131.817 176.021 130.753 174.358 129.702C172.659 128.667 171.002 127.6 169.327 126.594Z" fill="white"/>
<path d="M192.348 136.188L192.395 136.221C192.601 136.361 192.811 136.502 193.017 136.633C194.005 137.288 195.006 137.906 196.026 138.505C197.267 139.239 198.53 139.937 199.798 140.629C201.067 141.322 202.349 141.968 203.65 142.6C204.951 143.231 206.257 143.849 207.6 144.392C206.407 143.568 205.171 142.815 203.931 142.085C202.691 141.355 201.418 140.648 200.154 139.96C198.891 139.272 197.599 138.612 196.303 137.98C195.268 137.475 194.215 136.984 193.148 136.53C192.905 136.424 192.657 136.321 192.404 136.221L192.348 136.188Z" fill="white"/>
<path d="M171.99 148.557C173.174 147.715 174.33 146.812 175.42 145.899C176.511 144.986 177.629 144.027 178.696 143.091C179.763 142.155 180.84 141.158 181.879 140.152C182.726 139.338 183.559 138.509 184.364 137.648L184.879 137.096C184.892 137.083 184.905 137.069 184.916 137.054C184.901 137.068 184.884 137.079 184.865 137.087L184.214 137.555C183.278 138.243 182.38 138.959 181.481 139.693C180.363 140.629 179.277 141.565 178.205 142.501C177.133 143.437 176.062 144.434 175.023 145.44C173.984 146.447 172.963 147.476 171.99 148.557Z" fill="white"/>
<path d="M176.965 74.7022L170.82 74.8332L167.703 74.8847C166.659 74.9081 165.611 74.8847 164.567 74.9128H164.362V74.7022L164.333 69.4652V69.2312H164.567L170.764 69.2593C172.828 69.2593 174.896 69.3155 176.96 69.3389H177.091V69.4652C177.091 70.3544 177.054 71.239 177.03 72.1095L176.965 74.7022ZM176.965 74.7022L176.904 72.072C176.881 71.1969 176.852 70.3357 176.843 69.4793L176.969 69.6056C174.906 69.629 172.837 69.6805 170.773 69.6852L164.577 69.7133L164.811 69.4793V74.7162L164.6 74.5056C165.62 74.5056 166.641 74.5056 167.666 74.5337L170.745 74.5852L176.965 74.7022Z" fill="#EBEBEB"/>
<path d="M170.052 81.3056L163.908 81.4367L160.791 81.4882C159.752 81.4882 158.703 81.4882 157.66 81.5162H157.454V81.3056L157.43 76.0687V75.816H157.664L163.861 75.8441C165.925 75.8441 167.993 75.9002 170.057 75.9236H170.188V76.05C170.188 76.9392 170.151 77.8237 170.127 78.6942L170.052 81.3056ZM170.052 81.3056L169.987 78.6615C169.963 77.7863 169.935 76.9252 169.926 76.0687L170.052 76.1951C167.988 76.2185 165.92 76.27 163.856 76.2746L157.66 76.3027L157.894 76.0687L157.866 81.3056L157.66 81.095C158.68 81.095 159.7 81.095 160.72 81.1231L163.8 81.1746L170.052 81.3056Z" fill="#EBEBEB"/>
<path d="M183.877 81.3056L177.737 81.4367L174.62 81.4882C173.576 81.4882 172.528 81.4882 171.485 81.5162H171.288V81.3056L171.26 76.0687V75.816H171.494L177.69 75.8441C179.759 75.8441 181.823 75.9002 183.887 75.9236H184.018V76.05C184.018 76.9392 183.975 77.8237 183.952 78.6942L183.877 81.3056ZM183.877 81.3056L183.812 78.6615C183.812 77.7863 183.76 76.9252 183.751 76.0687L183.877 76.1951C181.813 76.2185 179.749 76.27 177.681 76.2746L171.485 76.3027L171.719 76.0687L171.695 81.3056L171.485 81.095C172.505 81.095 173.525 81.095 174.55 81.1231L177.629 81.1746L183.877 81.3056Z" fill="#EBEBEB"/>
<path d="M160.15 63.7463H156.363V76.27H160.15V63.7463Z" fill="#EBEBEB"/>
<path d="M160.15 63.7463H156.363V67.6166H160.15V63.7463Z" fill="#DBDBDB"/>
<path d="M161.629 59.9796L181.649 40.1894L178.665 37.1707L158.645 56.9609L161.629 59.9796Z" fill="#C7C7C7"/>
<path d="M165.721 54.7202L173.419 47.1101L171.626 45.2962L163.928 52.9063L165.721 54.7202Z" fill="#DBDBDB"/>
<path d="M18.7059 209.912L43.2806 209.8L67.8553 209.758L117 209.678L166.145 209.758L190.719 209.8L215.294 209.912L190.719 210.029L166.145 210.066L117 210.146L67.8553 210.066L43.2806 210.024L18.7059 209.912Z" fill="#263238"/>
<path d="M191.473 168.56C198.292 175.233 199.429 185.562 197.997 194.608C197.959 194.814 197.641 194.758 197.641 194.566C197.641 192.507 197.707 190.467 197.697 188.431C197.66 188.337 197.632 188.248 197.594 188.155C195.816 186.863 194.178 185.403 193.162 183.395C192.025 181.158 191.576 178.631 190.705 176.291C190.626 176.066 190.864 176.132 191.019 176.249C195.17 179.31 196.49 182.6 197.678 187.013C197.654 184.711 197.413 182.417 196.958 180.161C196.064 175.987 194.29 171.85 191.29 168.751C191.265 168.727 191.25 168.694 191.249 168.659C191.248 168.624 191.261 168.59 191.286 168.564C191.31 168.539 191.343 168.524 191.378 168.523C191.413 168.522 191.447 168.535 191.473 168.56Z" fill="#263238"/>
<path d="M190.19 169.336C189.016 169.379 188.281 171.251 187.382 171.798C187.286 171.876 187.175 171.933 187.056 171.965C186.937 171.997 186.812 172.004 186.69 171.985C186.568 171.966 186.451 171.922 186.347 171.855C186.243 171.788 186.154 171.7 186.086 171.597C185.178 170.329 186.423 168.789 187.593 167.9C186.755 168.241 186.063 168.836 185.159 169.018C185.044 169.056 184.922 169.068 184.802 169.054C184.681 169.04 184.565 169 184.462 168.938C184.358 168.875 184.269 168.791 184.2 168.691C184.132 168.591 184.085 168.478 184.064 168.358C183.667 166.636 185.829 165.869 187.312 165.831C186.592 165.335 184.532 163.959 185.627 163.304C186.723 162.649 189.156 164.577 189.947 165.218C191.103 166.154 192.488 167.558 192.54 169.037C192.596 170.754 191.094 169.697 190.19 169.336Z" fill="#83B9D2"/>
<path opacity="0.1" d="M190.19 169.336C189.016 169.379 188.281 171.251 187.382 171.798C187.286 171.876 187.175 171.933 187.056 171.965C186.937 171.997 186.812 172.004 186.69 171.985C186.568 171.966 186.451 171.922 186.347 171.855C186.243 171.788 186.154 171.7 186.086 171.597C185.178 170.329 186.423 168.789 187.593 167.9C186.755 168.241 186.063 168.836 185.159 169.018C185.044 169.056 184.922 169.068 184.802 169.054C184.681 169.04 184.565 169 184.462 168.938C184.358 168.875 184.269 168.791 184.2 168.691C184.132 168.591 184.085 168.478 184.064 168.358C183.667 166.636 185.829 165.869 187.312 165.831C186.592 165.335 184.532 163.959 185.627 163.304C186.723 162.649 189.156 164.577 189.947 165.218C191.103 166.154 192.488 167.558 192.54 169.037C192.596 170.754 191.094 169.697 190.19 169.336Z" fill="black"/>
<path d="M190.527 169.627C189.03 168.943 186.147 169.926 185.904 169.36C185.408 168.204 187.71 167.408 188.95 167.259C187.808 166.945 185.613 166.454 185.674 165.349C185.759 164.001 189.039 165.162 190.701 166.435C192.793 168.04 192.779 169.584 192.432 169.898C191.964 170.319 190.776 169.739 190.527 169.627Z" fill="#83B9D2"/>
<path d="M207.001 167.9C199.934 174.311 198.395 184.589 199.49 193.682C199.518 193.888 199.836 193.846 199.845 193.649C199.92 191.595 199.939 189.549 200.023 187.518L200.136 187.247C201.965 186.025 203.655 184.626 204.745 182.66C205.967 180.465 206.51 177.957 207.469 175.64C207.563 175.42 207.319 175.477 207.16 175.584C202.897 178.486 201.451 181.724 200.093 186.077C200.208 183.778 200.537 181.495 201.076 179.258C202.129 175.121 204.057 171.054 207.16 168.073C207.291 167.97 207.123 167.783 207.001 167.9Z" fill="#263238"/>
<path d="M208.26 168.723C209.43 168.808 210.095 170.708 210.988 171.293C211.081 171.374 211.19 171.436 211.308 171.472C211.426 171.509 211.551 171.521 211.673 171.506C211.796 171.491 211.914 171.451 212.021 171.388C212.127 171.324 212.218 171.239 212.289 171.138C213.225 169.907 212.06 168.302 210.928 167.394C211.747 167.769 212.416 168.4 213.31 168.606C213.424 168.649 213.546 168.666 213.667 168.657C213.788 168.648 213.906 168.613 214.013 168.554C214.119 168.496 214.212 168.415 214.284 168.317C214.357 168.22 214.408 168.108 214.433 167.989C214.901 166.285 212.762 165.433 211.283 165.34C212.023 164.872 214.133 163.589 213.062 162.878C211.99 162.167 209.491 164.015 208.676 164.628C207.483 165.522 206.046 166.875 205.939 168.344C205.794 170.048 207.324 169.051 208.26 168.723Z" fill="#83B9D2"/>
<path opacity="0.1" d="M208.26 168.723C209.43 168.808 210.095 170.708 210.988 171.293C211.081 171.374 211.19 171.436 211.308 171.472C211.426 171.509 211.551 171.521 211.673 171.506C211.796 171.491 211.914 171.451 212.021 171.388C212.127 171.324 212.218 171.239 212.289 171.138C213.225 169.907 212.06 168.302 210.928 167.394C211.747 167.769 212.416 168.4 213.31 168.606C213.424 168.649 213.546 168.666 213.667 168.657C213.788 168.648 213.906 168.613 214.013 168.554C214.119 168.496 214.212 168.415 214.284 168.317C214.357 168.22 214.408 168.108 214.433 167.989C214.901 166.285 212.762 165.433 211.283 165.34C212.023 164.872 214.133 163.589 213.062 162.878C211.99 162.167 209.491 164.015 208.676 164.628C207.483 165.522 206.046 166.875 205.939 168.344C205.794 170.048 207.324 169.051 208.26 168.723Z" fill="black"/>
<path d="M207.9 168.999C209.425 168.377 212.266 169.467 212.533 168.911C213.076 167.773 210.806 166.893 209.566 166.692C210.722 166.425 212.935 166.014 212.907 164.909C212.879 163.561 209.556 164.596 207.848 165.803C205.695 167.329 205.649 168.873 205.976 169.196C206.439 169.641 207.652 169.102 207.9 168.999Z" fill="#83B9D2"/>
<path d="M199.775 184.832C199.295 188.261 198.562 191.649 197.58 194.969C197.574 195.001 197.561 195.032 197.543 195.06C197.524 195.088 197.5 195.111 197.473 195.13C197.445 195.148 197.414 195.161 197.382 195.168C197.349 195.174 197.316 195.174 197.283 195.168C197.251 195.161 197.22 195.148 197.192 195.13C197.164 195.112 197.141 195.088 197.122 195.06C197.104 195.033 197.091 195.002 197.084 194.969C197.078 194.937 197.078 194.903 197.084 194.871C197.552 191.744 198.395 188.679 198.858 185.553C199.366 182.393 199.548 179.189 199.401 175.991C199.106 170.726 197.674 165.129 194.253 161.015C194.178 160.922 194.337 160.781 194.417 160.87C201.292 168.892 200.201 178.725 200.192 179.59C201.165 176.272 202.171 172.467 205.855 169.084C206.014 168.939 206.135 169.009 206.112 169.257C205.452 175.416 203.739 178.617 200.168 181.921C200.056 182.899 199.93 183.873 199.775 184.832Z" fill="#263238"/>
<path d="M194.178 161.928C192.942 161.376 191.234 162.953 190.008 163.061C189.869 163.093 189.725 163.096 189.585 163.069C189.444 163.042 189.312 162.986 189.195 162.905C189.078 162.823 188.979 162.717 188.906 162.595C188.832 162.473 188.785 162.336 188.768 162.195C188.464 160.43 190.542 159.434 192.194 159.12C191.15 159.054 190.13 159.331 189.109 159.054C188.971 159.036 188.838 158.988 188.719 158.914C188.601 158.84 188.5 158.741 188.423 158.624C188.346 158.508 188.295 158.376 188.274 158.237C188.253 158.099 188.262 157.958 188.3 157.824C188.768 155.835 191.384 156.125 192.942 156.836C192.446 155.956 190.991 153.504 192.474 153.364C193.958 153.223 195.498 156.462 195.994 157.524C196.724 159.083 197.449 161.235 196.761 162.789C195.961 164.61 194.931 162.756 194.178 161.928Z" fill="#83B9D2"/>
<path opacity="0.1" d="M194.178 161.928C192.942 161.376 191.234 162.953 190.008 163.061C189.869 163.093 189.725 163.096 189.585 163.069C189.444 163.042 189.312 162.986 189.195 162.905C189.078 162.823 188.979 162.717 188.906 162.595C188.832 162.473 188.785 162.336 188.768 162.195C188.464 160.43 190.542 159.434 192.194 159.12C191.15 159.054 190.13 159.331 189.109 159.054C188.971 159.036 188.838 158.988 188.719 158.914C188.601 158.84 188.5 158.741 188.423 158.624C188.346 158.508 188.295 158.376 188.274 158.237C188.253 158.099 188.262 157.958 188.3 157.824C188.768 155.835 191.384 156.125 192.942 156.836C192.446 155.956 190.991 153.504 192.474 153.364C193.958 153.223 195.498 156.462 195.994 157.524C196.724 159.083 197.449 161.235 196.761 162.789C195.961 164.61 194.931 162.756 194.178 161.928Z" fill="black"/>
<path d="M194.384 162.396C193.172 160.936 189.704 160.501 189.704 159.789C189.769 158.343 192.559 158.675 193.916 159.143C192.886 158.245 190.86 156.63 191.482 155.516C192.25 154.159 195.067 157.014 196.162 159.171C197.524 161.891 196.728 163.491 196.214 163.636C195.521 163.847 194.585 162.644 194.384 162.396Z" fill="#83B9D2"/>
<path d="M204.296 186.685L207.324 209.861H188.875C189.254 207.806 192.69 186.657 192.69 186.657L204.296 186.685Z" fill="#83B9D2"/>
<path d="M175.341 27.2844H94.6997C93.6183 27.2942 92.5493 27.517 91.554 27.94C90.5587 28.3631 89.6565 28.9781 88.8989 29.75C88.1414 30.5219 87.5434 31.4355 87.139 32.4386C86.7347 33.4417 86.532 34.5146 86.5425 35.5961V201.6C86.5238 203.784 87.3723 205.885 88.9017 207.444C90.4311 209.002 92.5164 209.89 94.6997 209.912H175.341C177.525 209.891 179.612 209.004 181.144 207.446C182.675 205.887 183.525 203.785 183.507 201.6V35.5961C183.517 34.514 183.314 33.4406 182.909 32.4372C182.504 31.4337 181.905 30.52 181.146 29.7481C180.388 28.9762 179.485 28.3613 178.489 27.9386C177.493 27.5159 176.423 27.2936 175.341 27.2844ZM178.406 196.466C178.406 200.837 175.13 204.371 171.096 204.371H98.9539C94.9103 204.371 91.6343 200.837 91.6343 196.466V41.886C91.6343 32.994 94.9103 32.526 98.9539 32.526H113.406C114.248 32.526 114.936 33.462 114.936 34.6648V35.1749C114.936 37.9454 116.452 37.9548 118.31 37.9548H151.73C153.602 37.9548 155.119 37.9548 155.119 35.1749V34.6882C155.119 33.5041 155.797 32.5494 156.649 32.5494H171.096C175.135 32.5494 178.406 33.7334 178.406 41.9094V196.466Z" fill="#263238"/>
<path d="M178.411 41.886V196.466C178.411 200.838 175.135 204.371 171.101 204.371H98.9586C94.915 204.371 91.639 200.838 91.639 196.466V41.886C91.639 32.994 94.915 32.526 98.9586 32.526H113.41C114.253 32.526 114.941 33.462 114.941 34.6647V35.1749C114.941 37.9454 116.457 37.9548 118.315 37.9548H151.735C153.607 37.9548 155.123 37.9548 155.123 35.1749V34.6881C155.123 33.5041 155.802 32.5494 156.654 32.5494H171.101C175.14 32.5494 178.411 33.7334 178.411 41.886Z" fill="white"/>
<path d="M178.411 41.8907V55.9307H91.639V41.8907C91.639 32.9987 94.915 32.5307 98.9586 32.5307H113.41C114.253 32.5307 114.941 33.4667 114.941 34.6694V35.1795C114.941 37.9501 116.457 37.9595 118.315 37.9595H151.735C153.607 37.9595 155.123 37.9595 155.123 35.1795V34.6928C155.123 33.5088 155.802 32.5541 156.654 32.5541H171.101C175.14 32.5541 178.411 33.7381 178.411 41.8907Z" fill="#83B9D2"/>
<path d="M139.581 34.384H130.464C130.315 34.3827 130.172 34.3225 130.067 34.2164C129.962 34.1104 129.903 33.9671 129.903 33.8177C129.903 33.7439 129.917 33.6709 129.945 33.6028C129.974 33.5346 130.015 33.4727 130.067 33.4206C130.119 33.3684 130.181 33.327 130.249 33.2988C130.318 33.2706 130.391 33.2561 130.464 33.2561H139.581C139.655 33.2561 139.728 33.2706 139.796 33.2988C139.864 33.327 139.926 33.3684 139.978 33.4206C140.03 33.4727 140.072 33.5346 140.1 33.6028C140.128 33.6709 140.143 33.7439 140.143 33.8177C140.143 33.8918 140.129 33.9653 140.101 34.034C140.073 34.1027 140.032 34.1652 139.98 34.2178C139.928 34.2705 139.865 34.3122 139.797 34.3408C139.729 34.3693 139.655 34.384 139.581 34.384Z" fill="white"/>
<path d="M104.827 45.7704H97.2971V50.544H104.827V45.7704Z" fill="white"/>
<path d="M104.832 45.7704C104.528 46.0605 104.219 46.3413 103.896 46.6268L102.96 47.4645L102.024 48.3257L101.996 48.3537L101.088 49.1072L101.046 49.14L101.004 49.1072L100.152 48.3491H100.124C99.7963 48.0636 99.4687 47.7781 99.1458 47.4879L98.2098 46.6502C97.9056 46.3647 97.5967 46.0839 97.2738 45.7938C97.5967 46.0465 97.915 46.3039 98.2098 46.5613C98.5046 46.8187 98.8463 47.0808 99.1458 47.3475C99.4453 47.6143 99.8525 47.9372 100.203 48.2367L100.99 48.9107L101.781 48.2367L102.834 47.3475L103.77 46.566L104.832 45.7704Z" fill="#83B9D2"/>
<path d="M100.278 48.321L100.157 48.4193C99.9694 48.5784 99.7729 48.7328 99.5763 48.8873C99.3798 49.0417 99.1083 49.243 98.8462 49.4161C98.5842 49.5893 98.3502 49.7578 98.0974 49.9216C97.8447 50.0854 97.5826 50.2445 97.3206 50.3896C97.5452 50.1883 97.7886 50.0011 98.0226 49.8186C98.2566 49.6361 98.4906 49.4629 98.7573 49.2898C99.0241 49.1166 99.2534 48.9481 99.5061 48.7843C99.7588 48.6205 99.918 48.5269 100.129 48.4052C100.175 48.376 100.224 48.3494 100.274 48.3257L100.278 48.321Z" fill="#83B9D2"/>
<path d="M104.832 50.3942C104.565 50.2491 104.308 50.09 104.055 49.9262C103.802 49.7624 103.55 49.5939 103.302 49.4208C103.054 49.2476 102.81 49.0745 102.571 48.8919C102.333 48.7094 102.183 48.5924 101.996 48.4239L101.874 48.3257L102.019 48.4099C102.231 48.5316 102.437 48.6579 102.637 48.789C102.894 48.9528 103.142 49.1213 103.39 49.2944C103.639 49.4676 103.882 49.6407 104.121 49.8233C104.359 50.0058 104.579 50.193 104.832 50.3942Z" fill="#83B9D2"/>
<path d="M106.442 45.7704C106.442 46.0899 106.347 46.4023 106.169 46.6679C105.992 46.9335 105.739 47.1405 105.444 47.2625C105.149 47.3846 104.824 47.4163 104.511 47.3536C104.197 47.2909 103.91 47.1367 103.684 46.9104C103.458 46.6842 103.305 46.396 103.243 46.0825C103.181 45.769 103.214 45.4442 103.337 45.1493C103.46 44.8543 103.667 44.6025 103.934 44.4256C104.2 44.2488 104.512 44.1549 104.832 44.1558C105.259 44.157 105.669 44.3277 105.971 44.6304C106.272 44.933 106.442 45.343 106.442 45.7704Z" fill="#455A64"/>
<path d="M105.361 46.0933C105.36 46.1272 105.345 46.1594 105.321 46.183C105.296 46.2065 105.264 46.2197 105.23 46.2197V46.3975C105.224 46.4274 105.208 46.4544 105.185 46.4739C105.161 46.4933 105.132 46.5039 105.101 46.5039C105.071 46.5039 105.041 46.4933 105.018 46.4739C104.994 46.4544 104.978 46.4274 104.972 46.3975V46.2197H104.242C104.228 46.2209 104.213 46.219 104.2 46.2142C104.186 46.2093 104.173 46.2016 104.163 46.1916C104.151 46.1802 104.141 46.1664 104.134 46.1511C104.128 46.1358 104.124 46.1194 104.124 46.1027C104.124 46.086 104.128 46.0695 104.134 46.0542C104.141 46.0389 104.151 46.0251 104.163 46.0138L104.977 44.928H105.015H105.089V45.864C105.12 45.828 105.163 45.8056 105.21 45.8016C105.257 45.7977 105.304 45.8125 105.34 45.8429C105.376 45.8733 105.398 45.9168 105.402 45.9638C105.406 46.0107 105.391 46.0573 105.361 46.0933ZM104.949 45.3913L104.481 45.967H104.949V45.3913Z" fill="white"/>
<path d="M110.916 35.8862L110.776 36.0266L110.696 36.1062C110.339 35.7498 109.855 35.5497 109.351 35.5497C108.846 35.5497 108.362 35.7498 108.005 36.1062L107.93 36.0266C107.883 35.9798 107.837 35.9377 107.794 35.8909L107.972 35.7318C108.097 35.6294 108.234 35.5429 108.379 35.4744C108.551 35.3879 108.734 35.3265 108.922 35.2919C109.011 35.2919 109.1 35.2919 109.189 35.2544H109.428H109.61C109.78 35.2734 109.947 35.3143 110.106 35.3761C110.223 35.418 110.336 35.4697 110.443 35.5306C110.557 35.5968 110.665 35.6719 110.766 35.7552L110.911 35.8909L110.916 35.8862Z" fill="white"/>
<path d="M108.445 36.5461L108.225 36.3262C108.461 36.0736 108.777 35.9086 109.119 35.8582C109.365 35.8236 109.616 35.848 109.851 35.9294C110.087 36.0107 110.299 36.1467 110.471 36.3262L110.251 36.5461C110.011 36.3082 109.686 36.1753 109.348 36.1764C109.181 36.1751 109.014 36.2071 108.859 36.2705C108.704 36.334 108.563 36.4277 108.445 36.5461Z" fill="white"/>
<path d="M110.031 36.7661C109.957 36.8363 109.882 36.9112 109.811 36.986C109.751 36.924 109.678 36.875 109.597 36.842C109.517 36.809 109.43 36.7927 109.343 36.7942C109.256 36.7922 109.17 36.8082 109.089 36.8412C109.009 36.8742 108.936 36.9236 108.875 36.986L108.656 36.7661C108.745 36.6747 108.852 36.6021 108.97 36.5525C109.089 36.5029 109.215 36.4774 109.343 36.4774C109.472 36.4774 109.598 36.5029 109.717 36.5525C109.835 36.6021 109.942 36.6747 110.031 36.7661Z" fill="white"/>
<path d="M109.545 37.1826C109.546 37.2228 109.535 37.2623 109.513 37.2961C109.491 37.3299 109.46 37.3565 109.423 37.3723C109.386 37.3881 109.345 37.3924 109.305 37.3848C109.266 37.3772 109.23 37.358 109.201 37.3295C109.173 37.3011 109.154 37.2648 109.146 37.2254C109.138 37.1859 109.143 37.145 109.159 37.1081C109.174 37.0711 109.201 37.0398 109.235 37.018C109.268 36.9963 109.308 36.9851 109.348 36.986C109.4 36.986 109.45 37.0068 109.487 37.0436C109.524 37.0805 109.545 37.1305 109.545 37.1826Z" fill="white"/>
<path d="M97.2971 36.3074C97.2971 36.1936 97.3309 36.0823 97.3941 35.9876C97.4574 35.893 97.5473 35.8192 97.6525 35.7756C97.7577 35.732 97.8734 35.7206 97.9851 35.7429C98.0967 35.7651 98.1993 35.8199 98.2798 35.9004C98.3603 35.9809 98.4151 36.0835 98.4373 36.1951C98.4596 36.3068 98.4482 36.4225 98.4046 36.5277C98.361 36.6329 98.2872 36.7228 98.1926 36.7861C98.0979 36.8493 97.9866 36.8831 97.8728 36.8831C97.7972 36.8831 97.7223 36.8682 97.6525 36.8393C97.5826 36.8103 97.5192 36.7679 97.4657 36.7145C97.4123 36.661 97.3699 36.5976 97.3409 36.5277C97.312 36.4579 97.2971 36.383 97.2971 36.3074Z" fill="white"/>
<path d="M99.1083 36.3074C99.1083 36.1936 99.142 36.0823 99.2053 35.9876C99.2685 35.893 99.3584 35.8192 99.4636 35.7756C99.5688 35.732 99.6846 35.7206 99.7962 35.7429C99.9079 35.7651 100.01 35.8199 100.091 35.9004C100.171 35.9809 100.226 36.0835 100.248 36.1951C100.271 36.3068 100.259 36.4225 100.216 36.5277C100.172 36.6329 100.098 36.7228 100.004 36.7861C99.9091 36.8493 99.7978 36.8831 99.6839 36.8831C99.5312 36.8831 99.3848 36.8224 99.2769 36.7145C99.1689 36.6065 99.1083 36.4601 99.1083 36.3074Z" fill="white"/>
<path d="M100.919 36.3074C100.919 36.1936 100.953 36.0823 101.016 35.9876C101.08 35.893 101.17 35.8192 101.275 35.7756C101.38 35.732 101.496 35.7206 101.607 35.7429C101.719 35.7651 101.822 35.8199 101.902 35.9004C101.983 35.9809 102.037 36.0835 102.06 36.1951C102.082 36.3068 102.07 36.4225 102.027 36.5277C101.983 36.6329 101.91 36.7228 101.815 36.7861C101.72 36.8493 101.609 36.8831 101.495 36.8831C101.342 36.8831 101.196 36.8224 101.088 36.7145C100.98 36.6065 100.919 36.4601 100.919 36.3074Z" fill="white"/>
<path d="M102.731 36.3074C102.731 36.1936 102.764 36.0823 102.828 35.9876C102.891 35.893 102.981 35.8192 103.086 35.7756C103.191 35.732 103.307 35.7206 103.419 35.7429C103.53 35.7651 103.633 35.8199 103.713 35.9004C103.794 35.9809 103.849 36.0835 103.871 36.1951C103.893 36.3068 103.882 36.4225 103.838 36.5277C103.794 36.6329 103.721 36.7228 103.626 36.7861C103.531 36.8493 103.42 36.8831 103.306 36.8831C103.231 36.8831 103.156 36.8682 103.086 36.8393C103.016 36.8103 102.953 36.7679 102.899 36.7145C102.846 36.661 102.803 36.5976 102.774 36.5277C102.745 36.4579 102.731 36.383 102.731 36.3074Z" fill="white"/>
<path d="M104.542 36.3074C104.542 36.1936 104.576 36.0823 104.639 35.9876C104.702 35.893 104.792 35.8192 104.897 35.7756C105.002 35.732 105.118 35.7206 105.23 35.7429C105.341 35.7651 105.444 35.8199 105.524 35.9004C105.605 35.9809 105.66 36.0835 105.682 36.1951C105.704 36.3068 105.693 36.4225 105.649 36.5277C105.606 36.6329 105.532 36.7228 105.437 36.7861C105.343 36.8493 105.231 36.8831 105.117 36.8831C105.042 36.8831 104.967 36.8682 104.897 36.8393C104.827 36.8103 104.764 36.7679 104.71 36.7145C104.657 36.661 104.614 36.5976 104.586 36.5277C104.557 36.4579 104.542 36.383 104.542 36.3074Z" fill="white"/>
<path d="M171.896 37.5664H167.216V35.3948H171.896V37.5664ZM167.455 37.3277H171.667V35.6335H167.455V37.3277Z" fill="white"/>
<path d="M170.623 35.7646H167.605V37.1966H170.623V35.7646Z" fill="white"/>
<path d="M172.318 35.9003H171.901V37.0609H172.318V35.9003Z" fill="white"/>
<path d="M127.558 46.697C127.557 46.66 127.564 46.6232 127.578 46.5888C127.592 46.5545 127.613 46.5233 127.639 46.4971C127.665 46.4709 127.696 46.4502 127.731 46.4363C127.765 46.4224 127.802 46.4156 127.839 46.4162C127.876 46.4156 127.913 46.4224 127.948 46.4363C127.982 46.4501 128.014 46.4707 128.04 46.4968C128.067 46.5229 128.088 46.5541 128.102 46.5885C128.117 46.6229 128.124 46.6598 128.124 46.697V49.6969C128.124 49.7342 128.117 49.7711 128.102 49.8055C128.088 49.8398 128.067 49.871 128.04 49.8971C128.014 49.9233 127.982 49.9439 127.948 49.9577C127.913 49.9715 127.876 49.9783 127.839 49.9777C127.802 49.9784 127.765 49.9715 127.731 49.9576C127.696 49.9437 127.665 49.9231 127.639 49.8969C127.613 49.8707 127.592 49.8395 127.578 49.8051C127.564 49.7708 127.557 49.734 127.558 49.6969V46.697Z" fill="white"/>
<path d="M129.636 49.6969C129.636 49.7706 129.607 49.8413 129.555 49.8938C129.504 49.9464 129.433 49.9765 129.36 49.9777C129.323 49.9777 129.287 49.9704 129.253 49.9563C129.219 49.9421 129.189 49.9213 129.163 49.8952C129.137 49.8691 129.117 49.8381 129.103 49.804C129.09 49.77 129.083 49.7336 129.084 49.6969V46.7392C129.08 46.6942 129.089 46.6492 129.107 46.6083C129.126 46.5674 129.155 46.5319 129.191 46.5052C129.252 46.4636 129.325 46.4467 129.398 46.458C129.47 46.4694 129.535 46.508 129.58 46.566L131.222 48.8405V46.7392C131.224 46.6667 131.253 46.5977 131.305 46.5469C131.357 46.4962 131.426 46.4677 131.499 46.4677C131.571 46.4677 131.642 46.496 131.694 46.5466C131.746 46.5973 131.777 46.6663 131.779 46.7392V49.6969C131.779 49.7714 131.75 49.8428 131.697 49.8955C131.644 49.9481 131.573 49.9777 131.499 49.9777C131.458 49.9764 131.419 49.9666 131.382 49.9488C131.346 49.9311 131.314 49.9058 131.288 49.8748V49.8467L129.636 47.5862V49.6969Z" fill="white"/>
<path d="M133.001 49.6969V46.697C133.001 46.6226 133.03 46.5511 133.083 46.4985C133.136 46.4458 133.207 46.4162 133.282 46.4162H134.002C134.258 46.4162 134.504 46.5176 134.686 46.6983C134.867 46.879 134.97 47.1242 134.971 47.3803C134.973 47.5903 134.903 47.7947 134.775 47.9606C134.976 48.0854 135.131 48.2723 135.216 48.4931C135.302 48.7138 135.313 48.9565 135.249 49.1843C135.185 49.4121 135.048 49.6127 134.859 49.7559C134.67 49.899 134.44 49.9769 134.204 49.9777H133.3C133.262 49.9803 133.223 49.9749 133.187 49.962C133.151 49.949 133.118 49.9287 133.09 49.9024C133.062 49.8761 133.039 49.8442 133.024 49.8089C133.009 49.7735 133.001 49.7354 133.001 49.6969ZM133.567 47.7968H134.002C134.111 47.7944 134.214 47.7493 134.289 47.6713C134.365 47.5933 134.406 47.4887 134.405 47.3803C134.405 47.3277 134.394 47.2756 134.374 47.227C134.354 47.1784 134.324 47.1344 134.287 47.0974C134.249 47.0604 134.205 47.0312 134.156 47.0114C134.107 46.9917 134.055 46.9819 134.002 46.9825H133.567V47.7968ZM133.567 49.4114H134.204C134.335 49.3991 134.456 49.3382 134.545 49.2409C134.634 49.1435 134.683 49.0166 134.683 48.8849C134.683 48.7533 134.634 48.6264 134.545 48.529C134.456 48.4316 134.335 48.3708 134.204 48.3584H133.567V49.4114Z" fill="white"/>
<path d="M138.832 46.8562C139.163 47.2041 139.347 47.6656 139.347 48.1455C139.347 48.6254 139.163 49.0869 138.832 49.4348C138.677 49.6037 138.489 49.7391 138.28 49.8324C138.071 49.9258 137.845 49.9753 137.615 49.9777C137.382 49.9761 137.151 49.9271 136.937 49.8338C136.723 49.7405 136.531 49.6048 136.37 49.4348C136.045 49.0843 135.864 48.6237 135.864 48.1455C135.864 47.6673 136.045 47.2067 136.37 46.8562C136.531 46.6887 136.725 46.5559 136.939 46.4658C137.153 46.3757 137.383 46.3301 137.615 46.332C137.843 46.3312 138.069 46.3774 138.278 46.4675C138.488 46.5577 138.676 46.69 138.832 46.8562ZM138.767 48.1432C138.767 47.8138 138.643 47.4965 138.42 47.254C138.319 47.1409 138.195 47.0504 138.056 46.9884C137.917 46.9263 137.767 46.894 137.615 46.8936C137.461 46.8928 137.307 46.9245 137.165 46.9866C137.024 47.0486 136.896 47.1397 136.792 47.254C136.569 47.4965 136.445 47.8138 136.445 48.1432C136.444 48.4728 136.567 48.7908 136.792 49.0324C136.896 49.1472 137.023 49.239 137.165 49.3019C137.307 49.3647 137.46 49.3973 137.615 49.3974C137.768 49.3961 137.918 49.363 138.056 49.3001C138.195 49.2372 138.319 49.146 138.42 49.0324C138.645 48.7908 138.768 48.4728 138.767 48.1432Z" fill="white"/>
<path d="M142.646 46.8983L141.678 48.204L142.646 49.5238C142.689 49.5836 142.707 49.6578 142.695 49.7304C142.684 49.803 142.645 49.8683 142.586 49.9122C142.538 49.948 142.481 49.9677 142.422 49.9684C142.377 49.9671 142.334 49.956 142.294 49.9358C142.254 49.9155 142.22 49.8867 142.192 49.8514L141.336 48.672L140.475 49.8467C140.448 49.8814 140.414 49.9099 140.376 49.9301C140.337 49.9503 140.294 49.9618 140.25 49.9637C140.191 49.9644 140.133 49.9446 140.086 49.9075C140.027 49.8643 139.986 49.7994 139.974 49.7267C139.962 49.654 139.979 49.5795 140.021 49.5191L140.99 48.1993L140.021 46.8842C139.979 46.8246 139.962 46.7507 139.975 46.6788C139.987 46.6069 140.027 46.5428 140.086 46.5005C140.115 46.4767 140.148 46.4593 140.184 46.4495C140.22 46.4396 140.258 46.4375 140.294 46.4432C140.331 46.449 140.366 46.4625 140.397 46.4828C140.428 46.5032 140.455 46.53 140.475 46.5613L141.336 47.736L142.188 46.566C142.208 46.5345 142.235 46.5077 142.267 46.4873C142.298 46.4669 142.334 46.4534 142.371 46.4476C142.408 46.4419 142.446 46.444 142.482 46.454C142.518 46.4639 142.552 46.4813 142.581 46.5052C142.612 46.5262 142.638 46.5532 142.658 46.5845C142.678 46.6159 142.691 46.651 142.697 46.6877C142.704 46.7245 142.702 46.762 142.693 46.7982C142.685 46.8344 142.669 46.8684 142.646 46.8983Z" fill="white"/>
<path d="M166.458 49.9496L165.868 50.4176L164.778 48.9762L164.38 48.4473C164.462 48.4154 164.539 48.3729 164.61 48.321C164.742 48.2179 164.845 48.0825 164.909 47.9279L165.335 48.4848L166.458 49.9496Z" fill="white"/>
<path d="M165.297 46.552C165.11 46.3083 164.858 46.1233 164.569 46.0186C164.28 45.914 163.968 45.8942 163.668 45.9614C163.368 46.0287 163.094 46.1803 162.878 46.3983C162.661 46.6163 162.512 46.8916 162.447 47.1918C162.382 47.492 162.404 47.8045 162.511 48.0924C162.618 48.3803 162.805 48.6317 163.05 48.8168C163.295 49.0019 163.588 49.1131 163.894 49.1372C164.2 49.1613 164.507 49.0973 164.778 48.9528C164.857 48.9117 164.933 48.8631 165.003 48.8077C165.132 48.7115 165.244 48.5944 165.335 48.4614C165.533 48.1808 165.637 47.8441 165.63 47.5005C165.623 47.157 165.507 46.8246 165.297 46.552ZM164.61 48.2976C164.539 48.3495 164.462 48.392 164.38 48.424C164.174 48.5061 163.946 48.5145 163.735 48.4476C163.524 48.3808 163.342 48.2428 163.221 48.0572C163.1 47.8716 163.047 47.6498 163.071 47.4294C163.095 47.2091 163.194 47.0038 163.352 46.8485C163.51 46.6932 163.717 46.5974 163.938 46.5774C164.159 46.5575 164.38 46.6145 164.563 46.7389C164.746 46.8633 164.881 47.0474 164.944 47.2599C165.007 47.4724 164.995 47.7001 164.909 47.9045C164.845 48.0591 164.742 48.1945 164.61 48.2976Z" fill="white"/>
<path d="M158.455 46.0184H154.178V50.296H158.455V46.0184Z" fill="white"/>
<path d="M156.551 46.814H156.083V49.505H156.551V46.814Z" fill="#83B9D2"/>
<path d="M154.969 47.9232V48.3912H157.66V47.9232H154.969Z" fill="#83B9D2"/>
<path d="M171.896 46.2946C171.896 46.3677 171.875 46.4392 171.834 46.5C171.793 46.5608 171.736 46.6081 171.668 46.6361C171.601 46.6641 171.526 46.6714 171.454 46.6572C171.383 46.6429 171.317 46.6077 171.265 46.556C171.213 46.5043 171.178 46.4384 171.164 46.3667C171.15 46.295 171.157 46.2206 171.185 46.1531C171.213 46.0855 171.26 46.0278 171.321 45.9871C171.382 45.9465 171.453 45.9248 171.527 45.9248C171.575 45.9248 171.623 45.9344 171.668 45.953C171.713 45.9716 171.754 45.9988 171.788 46.0331C171.822 46.0675 171.85 46.1082 171.868 46.1531C171.887 46.1979 171.896 46.246 171.896 46.2946Z" fill="white"/>
<path d="M171.896 48.204C171.896 48.3021 171.857 48.3961 171.788 48.4654C171.719 48.5348 171.625 48.5737 171.527 48.5737C171.429 48.5737 171.334 48.5348 171.265 48.4654C171.196 48.3961 171.157 48.3021 171.157 48.204C171.157 48.1554 171.166 48.1074 171.185 48.0625C171.204 48.0177 171.231 47.9769 171.265 47.9426C171.299 47.9082 171.34 47.881 171.385 47.8624C171.43 47.8438 171.478 47.8343 171.527 47.8343C171.575 47.8343 171.623 47.8438 171.668 47.8624C171.713 47.881 171.754 47.9082 171.788 47.9426C171.822 47.9769 171.85 48.0177 171.868 48.0625C171.887 48.1074 171.896 48.1554 171.896 48.204Z" fill="white"/>
<path d="M171.896 50.1322C171.896 50.1807 171.887 50.2288 171.868 50.2736C171.85 50.3185 171.822 50.3593 171.788 50.3936C171.754 50.4279 171.713 50.4552 171.668 50.4737C171.623 50.4923 171.575 50.5019 171.527 50.5019C171.478 50.5019 171.43 50.4923 171.385 50.4737C171.34 50.4552 171.299 50.4279 171.265 50.3936C171.231 50.3593 171.204 50.3185 171.185 50.2736C171.166 50.2288 171.157 50.1807 171.157 50.1322C171.157 50.0341 171.196 49.9401 171.265 49.8707C171.334 49.8014 171.429 49.7624 171.527 49.7624C171.625 49.7624 171.719 49.8014 171.788 49.8707C171.857 49.9401 171.896 50.0341 171.896 50.1322Z" fill="white"/>
<path d="M178.406 55.912H91.639V69.3108H178.406V55.912Z" fill="#EBEBEB"/>
<path d="M105.768 65.2018C105.496 65.3697 105.199 65.493 104.888 65.5668C104.146 65.7449 103.364 65.6368 102.699 65.264C102.033 64.8913 101.532 64.2814 101.296 63.5558C101.06 62.8303 101.106 62.0424 101.426 61.3494C101.745 60.6564 102.313 60.1092 103.018 59.8168C103.723 59.5244 104.512 59.5084 105.228 59.7719C105.944 60.0355 106.534 60.5592 106.881 61.2387C107.228 61.9182 107.306 62.7035 107.1 63.438C106.894 64.1726 106.418 64.8023 105.768 65.2018Z" fill="#83B9D2"/>
<path d="M105.071 62.244C105.071 62.4291 105.016 62.6101 104.913 62.764C104.81 62.9179 104.664 63.0379 104.493 63.1087C104.322 63.1796 104.134 63.1981 103.952 63.162C103.77 63.1259 103.604 63.0367 103.473 62.9058C103.342 62.7749 103.253 62.6082 103.217 62.4266C103.18 62.245 103.199 62.0568 103.27 61.8858C103.341 61.7148 103.461 61.5686 103.615 61.4657C103.769 61.3629 103.949 61.308 104.135 61.308C104.383 61.308 104.621 61.4066 104.796 61.5821C104.972 61.7577 105.071 61.9957 105.071 62.244Z" fill="white"/>
<path d="M105.768 64.818V65.2018C105.496 65.3697 105.199 65.493 104.888 65.5668C104.493 65.6655 104.083 65.6841 103.681 65.6214C103.279 65.5586 102.894 65.416 102.548 65.2018V64.818C102.548 64.3935 102.717 63.9864 103.017 63.6862C103.317 63.3861 103.724 63.2174 104.149 63.2174C104.573 63.2174 104.98 63.3861 105.28 63.6862C105.581 63.9864 105.749 64.3935 105.749 64.818H105.768Z" fill="white"/>
<path d="M123.252 64.6261H119.228L120.87 62.6137L119.228 60.6013H123.252L124.895 62.6137L123.252 64.6261Z" fill="white"/>
<path d="M112.91 60.6013L113.565 61.9258L115.025 62.1364L113.967 63.1706L114.22 64.6261L112.91 63.9382L111.604 64.6261L111.852 63.1706L110.794 62.1364L112.254 61.9258L112.91 60.6013Z" fill="#83B9D2"/>
<path d="M151.529 61.7947H127.783V63.4327H151.529V61.7947Z" fill="#263238"/>
<path d="M170.623 61.7947H161.315V63.4327H170.623V61.7947Z" fill="#455A64"/>
<path d="M105.768 78.624C105.496 78.792 105.199 78.9152 104.888 78.989C104.146 79.1671 103.364 79.059 102.699 78.6863C102.033 78.3136 101.532 77.7036 101.296 76.9781C101.06 76.2525 101.106 75.4647 101.426 74.7717C101.745 74.0787 102.313 73.5314 103.018 73.239C103.723 72.9467 104.512 72.9306 105.228 73.1942C105.944 73.4577 106.534 73.9815 106.881 74.6609C107.228 75.3404 107.306 76.1257 107.1 76.8603C106.894 77.5948 106.418 78.2246 105.768 78.624Z" fill="#455A64"/>
<path d="M105.071 75.6662C105.071 75.8513 105.016 76.0323 104.913 76.1862C104.81 76.3402 104.664 76.4601 104.493 76.531C104.322 76.6018 104.134 76.6204 103.952 76.5842C103.77 76.5481 103.604 76.459 103.473 76.3281C103.342 76.1972 103.253 76.0304 103.217 75.8488C103.18 75.6673 103.199 75.4791 103.27 75.308C103.341 75.137 103.461 74.9908 103.615 74.888C103.769 74.7851 103.949 74.7302 104.135 74.7302C104.383 74.7302 104.621 74.8288 104.796 75.0044C104.972 75.1799 105.071 75.418 105.071 75.6662Z" fill="white"/>
<path d="M105.768 78.2168V78.624C105.496 78.792 105.199 78.9152 104.888 78.989C104.494 79.0891 104.083 79.1083 103.681 79.0456C103.279 78.9829 102.893 78.8395 102.548 78.624V78.2402C102.548 77.8157 102.717 77.4086 103.017 77.1085C103.317 76.8083 103.724 76.6397 104.149 76.6397C104.573 76.6397 104.98 76.8083 105.28 77.1085C105.581 77.4086 105.749 77.8157 105.749 78.2402L105.768 78.2168Z" fill="white"/>
<path d="M123.252 78.025H119.228L120.87 76.0126L119.228 74.0002H123.252L124.895 76.0126L123.252 78.025Z" fill="white"/>
<path d="M123.309 78.156H118.98L120.721 76.0266L118.98 73.8972H123.309L125.045 76.0266L123.309 78.156ZM119.476 77.922H123.22L124.764 76.0266L123.22 74.1546H119.476L121.02 76.0266L119.476 77.922Z" fill="#EBEBEB"/>
<path d="M112.91 74.0002L113.565 75.3246L115.025 75.5352L113.967 76.5695L114.22 78.025L112.91 77.337L111.604 78.025L111.852 76.5695L110.794 75.5352L112.254 75.3246L112.91 74.0002Z" fill="#83B9D2"/>
<path d="M151.529 75.1935H127.783V76.8315H151.529V75.1935Z" fill="#263238"/>
<path d="M170.623 75.1935H161.315V76.8315H170.623V75.1935Z" fill="#455A64"/>
<path d="M178.406 82.7096H91.639V96.1085H178.406V82.7096Z" fill="#EBEBEB"/>
<path d="M105.768 91.9994C105.495 92.167 105.199 92.2917 104.888 92.3692C104.142 92.5523 103.355 92.4475 102.683 92.0758C102.011 91.704 101.504 91.0927 101.263 90.3636C101.022 89.6346 101.065 88.8415 101.383 88.1426C101.701 87.4436 102.271 86.8902 102.978 86.5927C103.686 86.2953 104.48 86.2756 105.202 86.5377C105.924 86.7998 106.52 87.3244 106.872 88.0067C107.224 88.6891 107.306 89.4791 107.101 90.2192C106.897 90.9592 106.421 91.5949 105.768 91.9994Z" fill="#83B9D2"/>
<path d="M105.071 89.0651C105.071 89.2502 105.016 89.4312 104.913 89.5851C104.81 89.739 104.664 89.859 104.493 89.9298C104.322 90.0007 104.134 90.0192 103.952 89.9831C103.77 89.947 103.604 89.8578 103.473 89.7269C103.342 89.596 103.253 89.4292 103.217 89.2477C103.18 89.0661 103.199 88.8779 103.27 88.7069C103.341 88.5358 103.461 88.3897 103.615 88.2868C103.769 88.184 103.949 88.1291 104.135 88.1291C104.383 88.1291 104.621 88.2277 104.796 88.4032C104.972 88.5787 105.071 88.8168 105.071 89.0651Z" fill="white"/>
<path d="M105.768 91.6157V91.9994C105.495 92.167 105.199 92.2917 104.888 92.3691C104.493 92.4682 104.082 92.4866 103.68 92.423C103.278 92.3595 102.893 92.2154 102.548 91.9994V91.6157C102.548 91.1912 102.717 90.7841 103.017 90.4839C103.317 90.1837 103.724 90.0151 104.149 90.0151C104.573 90.0151 104.98 90.1837 105.28 90.4839C105.581 90.7841 105.749 91.1912 105.749 91.6157H105.768Z" fill="white"/>
<path d="M123.252 91.4238H119.228L120.87 89.4114L119.228 87.399H123.252L124.895 89.4114L123.252 91.4238Z" fill="white"/>
<path d="M112.91 87.399L113.565 88.7234L115.025 88.934L113.967 89.9683L114.22 91.4238L112.91 90.7358L111.604 91.4238L111.852 89.9683L110.794 88.934L112.254 88.7234L112.91 87.399Z" fill="white"/>
<path d="M151.529 88.5924H127.783V90.2304H151.529V88.5924Z" fill="#DBDBDB"/>
<path d="M170.623 88.5924H161.315V90.2304H170.623V88.5924Z" fill="#C7C7C7"/>
<path d="M105.768 105.398C105.495 105.566 105.199 105.691 104.888 105.768C104.142 105.951 103.355 105.846 102.683 105.475C102.011 105.103 101.504 104.491 101.263 103.762C101.022 103.033 101.065 102.24 101.383 101.541C101.701 100.842 102.271 100.289 102.978 99.9916C103.686 99.6941 104.48 99.6745 105.202 99.9365C105.924 100.199 106.52 100.723 106.872 101.406C107.224 102.088 107.306 102.878 107.101 103.618C106.897 104.358 106.421 104.994 105.768 105.398Z" fill="#A6A6A6"/>
<path d="M105.071 102.464C105.071 102.649 105.016 102.83 104.913 102.984C104.81 103.138 104.664 103.258 104.493 103.329C104.322 103.4 104.134 103.418 103.952 103.382C103.77 103.346 103.604 103.257 103.473 103.126C103.342 102.995 103.253 102.828 103.217 102.647C103.18 102.465 103.199 102.277 103.27 102.106C103.341 101.935 103.461 101.788 103.615 101.686C103.769 101.583 103.949 101.528 104.135 101.528C104.383 101.528 104.621 101.627 104.796 101.802C104.972 101.978 105.071 102.216 105.071 102.464Z" fill="white"/>
<path d="M105.768 105.019V105.398C105.495 105.566 105.199 105.691 104.888 105.768C104.493 105.867 104.082 105.885 103.68 105.822C103.278 105.758 102.893 105.614 102.548 105.398V105.019C102.548 104.595 102.717 104.188 103.017 103.887C103.317 103.587 103.724 103.419 104.149 103.419C104.573 103.419 104.98 103.587 105.28 103.887C105.581 104.188 105.749 104.595 105.749 105.019H105.768Z" fill="white"/>
<path d="M123.252 104.823H119.228L120.87 102.81L119.228 100.798H123.252L124.895 102.81L123.252 104.823Z" fill="white"/>
<path d="M123.309 104.94H118.98L120.721 102.81L118.98 100.681H123.309L125.045 102.81L123.309 104.94ZM119.476 104.706H123.22L124.764 102.834L123.22 100.938H119.476L121.02 102.834L119.476 104.706Z" fill="#EBEBEB"/>
<path d="M112.91 100.798L113.565 102.122L115.025 102.338L113.967 103.367L114.22 104.823L112.91 104.135L111.604 104.823L111.852 103.367L110.794 102.338L112.254 102.122L112.91 100.798Z" fill="#83B9D2"/>
<path d="M151.529 101.991H127.783V103.629H151.529V101.991Z" fill="#DBDBDB"/>
<path d="M170.623 101.991H161.315V103.629H170.623V101.991Z" fill="#C7C7C7"/>
<path d="M178.406 109.512H91.639V122.911H178.406V109.512Z" fill="#EBEBEB"/>
<path d="M105.768 118.797C105.495 118.965 105.199 119.089 104.888 119.167C104.142 119.35 103.355 119.245 102.683 118.873C102.011 118.502 101.504 117.89 101.263 117.161C101.022 116.432 101.065 115.639 101.383 114.94C101.701 114.241 102.271 113.688 102.978 113.39C103.686 113.093 104.48 113.073 105.202 113.335C105.924 113.597 106.52 114.122 106.872 114.804C107.224 115.487 107.306 116.277 107.101 117.017C106.897 117.757 106.421 118.393 105.768 118.797Z" fill="#37474F"/>
<path d="M105.071 115.863C105.071 116.048 105.016 116.229 104.913 116.383C104.81 116.537 104.664 116.657 104.493 116.728C104.322 116.798 104.134 116.817 103.952 116.781C103.77 116.745 103.604 116.656 103.473 116.525C103.342 116.394 103.253 116.227 103.217 116.045C103.18 115.864 103.199 115.676 103.27 115.505C103.341 115.334 103.461 115.187 103.615 115.084C103.769 114.982 103.949 114.927 104.135 114.927C104.383 114.927 104.621 115.025 104.796 115.201C104.972 115.376 105.071 115.615 105.071 115.863Z" fill="white"/>
<path d="M105.768 118.404V118.783C105.495 118.951 105.199 119.075 104.888 119.153C104.493 119.252 104.082 119.27 103.68 119.207C103.278 119.143 102.893 118.999 102.548 118.783V118.404C102.548 117.98 102.717 117.572 103.017 117.272C103.317 116.972 103.724 116.803 104.149 116.803C104.573 116.803 104.98 116.972 105.28 117.272C105.581 117.572 105.749 117.98 105.749 118.404H105.768Z" fill="white"/>
<path d="M123.252 118.221H119.228L120.87 116.209L119.228 114.197H123.252L124.895 116.209L123.252 118.221Z" fill="white"/>
<path d="M112.91 114.197L113.565 115.521L115.025 115.736L113.967 116.766L114.22 118.221L112.91 117.533L111.604 118.221L111.852 116.766L110.794 115.736L112.254 115.521L112.91 114.197Z" fill="#83B9D2"/>
<path d="M151.529 115.39H127.783V117.028H151.529V115.39Z" fill="#DBDBDB"/>
<path d="M170.623 115.39H161.315V117.028H170.623V115.39Z" fill="#C7C7C7"/>
<path d="M178.411 189.905V196.457C178.43 197.811 178.106 199.149 177.47 200.344C176.833 201.54 175.904 202.555 174.77 203.295H95.2847C94.1499 202.555 93.2208 201.54 92.5841 200.344C91.9474 199.149 91.6239 197.811 91.6437 196.457V189.905H178.411Z" fill="#EBEBEB"/>
<path d="M105.768 199.195C105.495 199.362 105.199 199.487 104.888 199.565C104.142 199.748 103.355 199.643 102.683 199.271C102.011 198.899 101.504 198.288 101.263 197.559C101.022 196.83 101.065 196.037 101.383 195.338C101.701 194.639 102.271 194.086 102.978 193.788C103.686 193.491 104.48 193.471 105.202 193.733C105.924 193.995 106.52 194.52 106.872 195.202C107.224 195.885 107.306 196.675 107.101 197.415C106.897 198.155 106.421 198.79 105.768 199.195Z" fill="#83B9D2"/>
<path d="M105.071 196.26C105.071 196.446 105.016 196.627 104.913 196.78C104.81 196.934 104.664 197.054 104.493 197.125C104.322 197.196 104.134 197.215 103.952 197.178C103.77 197.142 103.604 197.053 103.473 196.922C103.342 196.791 103.253 196.625 103.217 196.443C103.18 196.262 103.199 196.073 103.27 195.902C103.341 195.731 103.461 195.585 103.615 195.482C103.769 195.379 103.949 195.324 104.135 195.324C104.383 195.324 104.621 195.423 104.796 195.599C104.972 195.774 105.071 196.012 105.071 196.26Z" fill="white"/>
<path d="M105.768 198.811V199.195C105.495 199.362 105.199 199.487 104.888 199.565C104.493 199.663 104.083 199.68 103.681 199.617C103.279 199.553 102.894 199.41 102.548 199.195V198.811C102.548 198.387 102.717 197.979 103.017 197.679C103.317 197.379 103.724 197.211 104.149 197.211C104.573 197.211 104.98 197.379 105.28 197.679C105.581 197.979 105.749 198.387 105.749 198.811H105.768Z" fill="white"/>
<path d="M123.252 198.619H119.228L120.87 196.607L119.228 194.594H123.252L124.895 196.607L123.252 198.619Z" fill="white"/>
<path d="M112.91 194.594L113.565 195.919L115.025 196.129L113.967 197.164L114.22 198.619L112.91 197.931L111.604 198.619L111.852 197.164L110.794 196.129L112.254 195.919L112.91 194.594Z" fill="#83B9D2"/>
<path d="M151.529 195.788H127.783V197.426H151.529V195.788Z" fill="#DBDBDB"/>
<path d="M170.623 195.788H161.315V197.426H170.623V195.788Z" fill="#C7C7C7"/>
<path d="M105.768 132.196C105.359 132.448 104.896 132.6 104.417 132.639C103.938 132.678 103.457 132.603 103.012 132.42C102.568 132.238 102.173 131.953 101.859 131.588C101.546 131.224 101.323 130.791 101.21 130.324C101.077 129.778 101.097 129.206 101.269 128.671C101.441 128.136 101.757 127.658 102.183 127.292C102.61 126.926 103.129 126.684 103.684 126.595C104.238 126.505 104.807 126.57 105.327 126.784C105.847 126.997 106.298 127.351 106.629 127.804C106.961 128.258 107.161 128.795 107.206 129.355C107.252 129.915 107.142 130.477 106.888 130.978C106.634 131.48 106.246 131.901 105.768 132.196Z" fill="#263238"/>
<path d="M105.071 129.262C105.071 129.447 105.016 129.628 104.913 129.782C104.81 129.936 104.664 130.055 104.493 130.126C104.322 130.197 104.134 130.216 103.952 130.18C103.77 130.143 103.604 130.054 103.473 129.923C103.342 129.793 103.253 129.626 103.217 129.444C103.18 129.263 103.199 129.074 103.27 128.903C103.341 128.732 103.461 128.586 103.615 128.483C103.769 128.38 103.949 128.326 104.135 128.326C104.383 128.326 104.621 128.424 104.796 128.6C104.972 128.775 105.071 129.013 105.071 129.262Z" fill="white"/>
<path d="M105.768 131.817V132.196C105.287 132.495 104.733 132.653 104.167 132.653C103.602 132.653 103.047 132.495 102.567 132.196V131.817C102.567 131.392 102.735 130.985 103.036 130.685C103.336 130.385 103.743 130.216 104.167 130.216C104.592 130.216 104.999 130.385 105.299 130.685C105.599 130.985 105.768 131.392 105.768 131.817Z" fill="white"/>
<path d="M123.252 131.62H119.228L120.87 129.608L119.228 127.596H123.252L124.895 129.608L123.252 131.62Z" fill="white"/>
<path d="M123.309 131.737H118.98L120.721 129.608L118.98 127.479H123.309L125.045 129.608L123.309 131.737ZM119.476 131.503H123.22L124.764 129.608L123.22 127.713H119.476L121.02 129.608L119.476 131.503Z" fill="#EBEBEB"/>
<path d="M112.91 127.596L113.565 128.92L115.025 129.135L113.967 130.165L114.22 131.62L112.91 130.932L111.604 131.62L111.852 130.165L110.794 129.135L112.254 128.92L112.91 127.596Z" fill="white"/>
<path d="M114.374 131.836L112.91 131.068L111.445 131.836L111.726 130.207L110.542 129.051L112.18 128.817L112.91 127.333L113.64 128.817L115.278 129.051L114.094 130.207L114.374 131.836ZM112.91 130.801L114.061 131.41L113.841 130.123L114.777 129.215L113.485 129.028L112.91 127.862L112.32 129.028L111.033 129.215L111.969 130.123L111.749 131.41L112.91 130.801Z" fill="#EBEBEB"/>
<path d="M151.529 128.789H127.783V130.427H151.529V128.789Z" fill="#DBDBDB"/>
<path d="M170.623 128.789H161.315V130.427H170.623V128.789Z" fill="#C7C7C7"/>
<path d="M178.406 136.31H91.639V149.709H178.406V136.31Z" fill="#EBEBEB"/>
<path d="M105.768 145.599C105.495 145.765 105.198 145.889 104.888 145.965C104.304 146.106 103.69 146.072 103.125 145.865C102.56 145.659 102.07 145.289 101.715 144.804C101.36 144.318 101.156 143.739 101.131 143.138C101.105 142.537 101.259 141.942 101.571 141.428C101.884 140.914 102.341 140.504 102.887 140.25C103.432 139.997 104.04 139.91 104.635 140.002C105.229 140.094 105.783 140.36 106.226 140.766C106.669 141.173 106.982 141.702 107.125 142.286C107.277 142.911 107.227 143.568 106.984 144.163C106.74 144.758 106.314 145.261 105.768 145.599Z" fill="#83B9D2"/>
<path d="M105.071 142.66C105.071 142.846 105.016 143.027 104.913 143.18C104.81 143.334 104.664 143.454 104.493 143.525C104.322 143.596 104.134 143.615 103.952 143.578C103.77 143.542 103.604 143.453 103.473 143.322C103.342 143.191 103.253 143.025 103.217 142.843C103.18 142.661 103.199 142.473 103.27 142.302C103.341 142.131 103.461 141.985 103.615 141.882C103.769 141.779 103.949 141.724 104.135 141.724C104.383 141.724 104.621 141.823 104.796 141.999C104.972 142.174 105.071 142.412 105.071 142.66Z" fill="white"/>
<path d="M105.768 145.216V145.599C105.495 145.766 105.198 145.889 104.888 145.965C104.493 146.064 104.082 146.082 103.68 146.018C103.278 145.955 102.893 145.811 102.548 145.595V145.216C102.548 144.791 102.717 144.384 103.017 144.084C103.317 143.784 103.724 143.615 104.149 143.615C104.573 143.615 104.98 143.784 105.28 144.084C105.581 144.384 105.749 144.791 105.749 145.216H105.768Z" fill="white"/>
<path d="M123.252 145.024H119.228L120.87 143.007L119.228 140.994H123.252L124.895 143.007L123.252 145.024Z" fill="white"/>
<path d="M112.91 140.994L113.565 142.323L115.025 142.534L113.967 143.564L114.22 145.024L112.91 144.336L111.604 145.024L111.852 143.564L110.794 142.534L112.254 142.323L112.91 140.994Z" fill="#83B9D2"/>
<path d="M151.529 142.192H127.783V143.83H151.529V142.192Z" fill="#263238"/>
<path d="M170.623 142.192H161.315V143.83H170.623V142.192Z" fill="#455A64"/>
<path d="M105.768 158.998C105.496 159.166 105.199 159.29 104.888 159.363C104.304 159.505 103.69 159.471 103.125 159.264C102.56 159.058 102.07 158.688 101.715 158.203C101.36 157.717 101.156 157.137 101.131 156.536C101.105 155.936 101.259 155.341 101.571 154.827C101.884 154.313 102.341 153.903 102.887 153.649C103.432 153.396 104.04 153.309 104.635 153.401C105.229 153.493 105.783 153.759 106.226 154.165C106.669 154.572 106.982 155.101 107.125 155.685C107.277 156.31 107.227 156.967 106.984 157.562C106.74 158.157 106.314 158.659 105.768 158.998Z" fill="#83B9D2"/>
<path d="M105.071 156.059C105.071 156.244 105.016 156.425 104.913 156.579C104.81 156.733 104.664 156.853 104.493 156.924C104.322 156.995 104.134 157.013 103.952 156.977C103.77 156.941 103.604 156.852 103.473 156.721C103.342 156.59 103.253 156.423 103.217 156.242C103.18 156.06 103.199 155.872 103.27 155.701C103.341 155.53 103.461 155.384 103.615 155.281C103.769 155.178 103.949 155.123 104.135 155.123C104.383 155.123 104.621 155.222 104.796 155.397C104.972 155.573 105.071 155.811 105.071 156.059Z" fill="white"/>
<path d="M105.768 158.615V158.998C105.496 159.166 105.199 159.29 104.888 159.363C104.493 159.462 104.082 159.481 103.68 159.417C103.278 159.354 102.893 159.21 102.548 158.994V158.615C102.548 158.19 102.717 157.783 103.017 157.483C103.317 157.183 103.724 157.014 104.149 157.014C104.573 157.014 104.98 157.183 105.28 157.483C105.581 157.783 105.749 158.19 105.749 158.615H105.768Z" fill="white"/>
<path d="M123.252 158.423H119.228L120.87 156.41L119.228 154.398H123.252L124.895 156.41L123.252 158.423Z" fill="white"/>
<path d="M123.309 158.54H118.98L120.721 156.41L118.98 154.281H123.309L125.045 156.41L123.309 158.54ZM119.476 158.306H123.22L124.764 156.41L123.22 154.538H119.476L121.02 156.41L119.476 158.306Z" fill="#EBEBEB"/>
<path d="M112.91 154.398L113.565 155.722L115.025 155.933L113.967 156.963L114.22 158.423L112.91 157.735L111.604 158.423L111.852 156.963L110.794 155.933L112.254 155.722L112.91 154.398Z" fill="white"/>
<path d="M114.374 158.652L112.91 157.884L111.445 158.652L111.726 157.023L110.542 155.844L112.18 155.605L112.91 154.122L113.64 155.605L115.278 155.844L114.094 156.995L114.374 158.652ZM111.047 156.036L111.983 156.944L111.763 158.226L112.914 157.618L114.066 158.226L113.846 156.944L114.782 156.036L113.49 155.844L112.914 154.679L112.32 155.844L111.047 156.036Z" fill="#EBEBEB"/>
<path d="M151.529 155.591H127.783V157.229H151.529V155.591Z" fill="#DBDBDB"/>
<path d="M170.623 155.591H161.315V157.229H170.623V155.591Z" fill="#C7C7C7"/>
<path d="M178.406 163.107H91.639V176.506H178.406V163.107Z" fill="#EBEBEB"/>
<path d="M105.768 172.397C105.496 172.565 105.199 172.688 104.888 172.762C104.146 172.94 103.364 172.832 102.699 172.459C102.033 172.087 101.532 171.477 101.296 170.751C101.06 170.026 101.106 169.238 101.426 168.545C101.745 167.852 102.313 167.305 103.018 167.012C103.723 166.72 104.512 166.704 105.228 166.967C105.944 167.231 106.534 167.755 106.881 168.434C107.228 169.114 107.306 169.899 107.1 170.633C106.894 171.368 106.418 171.998 105.768 172.397Z" fill="#455A64"/>
<path d="M105.071 169.458C105.071 169.643 105.016 169.824 104.913 169.978C104.81 170.132 104.664 170.252 104.493 170.323C104.322 170.394 104.134 170.412 103.952 170.376C103.77 170.34 103.604 170.251 103.473 170.12C103.342 169.989 103.253 169.822 103.217 169.641C103.18 169.459 103.199 169.271 103.27 169.1C103.341 168.929 103.461 168.783 103.615 168.68C103.769 168.577 103.949 168.522 104.135 168.522C104.383 168.522 104.621 168.621 104.796 168.796C104.972 168.972 105.071 169.21 105.071 169.458Z" fill="white"/>
<path d="M105.768 172.013V172.397C105.496 172.565 105.199 172.688 104.888 172.762C104.493 172.861 104.083 172.879 103.681 172.817C103.279 172.754 102.894 172.611 102.548 172.397V172.013C102.548 171.589 102.717 171.182 103.017 170.882C103.317 170.581 103.724 170.413 104.149 170.413C104.573 170.413 104.98 170.581 105.28 170.882C105.581 171.182 105.749 171.589 105.749 172.013H105.768Z" fill="white"/>
<path d="M123.252 171.822H119.228L120.87 169.809L119.228 167.797H123.252L124.895 169.809L123.252 171.822Z" fill="white"/>
<path d="M112.91 167.797L113.565 169.121L115.025 169.332L113.967 170.361L114.22 171.822L112.91 171.134L111.604 171.822L111.852 170.361L110.794 169.332L112.254 169.121L112.91 167.797Z" fill="white"/>
<path d="M151.529 168.99H127.783V170.628H151.529V168.99Z" fill="#DBDBDB"/>
<path d="M170.623 168.99H161.315V170.628H170.623V168.99Z" fill="#C7C7C7"/>
<path d="M105.768 185.796C105.496 185.964 105.199 186.087 104.888 186.161C104.146 186.339 103.364 186.231 102.699 185.858C102.033 185.486 101.532 184.876 101.296 184.15C101.06 183.425 101.106 182.637 101.426 181.944C101.745 181.251 102.313 180.703 103.018 180.411C103.723 180.119 104.512 180.103 105.228 180.366C105.944 180.63 106.534 181.153 106.881 181.833C107.228 182.512 107.306 183.298 107.1 184.032C106.894 184.767 106.418 185.397 105.768 185.796Z" fill="#A6A6A6"/>
<path d="M105.071 182.862C105.071 183.047 105.016 183.228 104.913 183.382C104.81 183.536 104.664 183.656 104.493 183.726C104.322 183.797 104.134 183.816 103.952 183.78C103.77 183.744 103.604 183.654 103.473 183.524C103.342 183.393 103.253 183.226 103.217 183.044C103.18 182.863 103.199 182.674 103.27 182.503C103.341 182.332 103.461 182.186 103.615 182.083C103.769 181.981 103.949 181.926 104.135 181.926C104.383 181.926 104.621 182.024 104.796 182.2C104.972 182.375 105.071 182.613 105.071 182.862Z" fill="white"/>
<path d="M105.768 185.412V185.796C105.496 185.964 105.199 186.087 104.888 186.161C104.494 186.261 104.083 186.28 103.681 186.218C103.279 186.155 102.893 186.011 102.548 185.796V185.412C102.548 184.988 102.717 184.581 103.017 184.28C103.317 183.98 103.724 183.812 104.149 183.812C104.573 183.812 104.98 183.98 105.28 184.28C105.581 184.581 105.749 184.988 105.749 185.412H105.768Z" fill="white"/>
<path d="M123.252 185.22H119.228L120.87 183.208L119.228 181.196H123.252L124.895 183.208L123.252 185.22Z" fill="white"/>
<path d="M123.309 185.328H118.98L120.721 183.199L118.98 181.069H123.309L125.045 183.199L123.309 185.328ZM119.476 185.094H123.22L124.764 183.222L123.22 181.327H119.476L121.02 183.222L119.476 185.094Z" fill="#EBEBEB"/>
<path d="M112.91 181.196L113.565 182.52L115.025 182.731L113.967 183.765L114.22 185.22L112.91 184.532L111.604 185.22L111.852 183.765L110.794 182.731L112.254 182.52L112.91 181.196Z" fill="white"/>
<path d="M114.374 185.436L112.91 184.663L111.445 185.436L111.726 183.802L110.542 182.651L112.18 182.412L112.91 180.929L113.64 182.412L115.278 182.651L114.094 183.802L114.374 185.436ZM112.91 184.392L114.061 184.996L113.841 183.713L114.777 182.805L113.485 182.618L112.91 181.448L112.334 182.618L111.047 182.805L111.983 183.713L111.763 184.996L112.91 184.392Z" fill="#EBEBEB"/>
<path d="M151.529 182.389H127.783V184.027H151.529V182.389Z" fill="#DBDBDB"/>
<path d="M170.623 182.389H161.315V184.027H170.623V182.389Z" fill="#C7C7C7"/>
<path d="M105.174 210.001H67.1814C62.6371 194.061 58.9821 181.921 58.9821 181.921H95.004C95.004 181.921 99.4547 193.944 105.174 210.001Z" fill="#37474F"/>
<path d="M72.7459 210.001H71.9644C69.7133 202.49 67.3733 195.025 65.0801 187.504C65.0473 187.406 65.2018 187.359 65.2392 187.457C65.7072 188.758 66.1752 190.06 66.6432 191.365C68.8334 197.524 70.8412 203.749 72.7459 210.001Z" fill="#50290E"/>
<path d="M94.1804 181.935C94.1383 182.688 92.1306 189.582 91.0916 199.897C90.7125 203.702 90.2819 207.282 89.8233 210.001H39.4057C34.4168 194.585 41.8206 181.921 41.8206 181.921C41.8206 181.921 94.1851 181.902 94.1804 181.935Z" fill="#37474F"/>
<path d="M84.1043 199.008C84.2821 201.596 84.3429 204.188 84.3102 206.776C84.2281 207.849 84.2188 208.927 84.2821 210.001H83.4069C83.1963 208.358 83.4069 206.313 83.4069 204.699C83.3789 198.011 82.5271 191.398 81.4975 184.799C81.4966 184.77 81.5061 184.741 81.5244 184.717C81.5427 184.694 81.5686 184.678 81.5976 184.672C81.6266 184.665 81.6569 184.67 81.6831 184.684C81.7092 184.698 81.7297 184.72 81.7409 184.748C83.0161 189.407 83.808 194.186 84.1043 199.008Z" fill="#50290E"/>
<path d="M90.3568 202.349C90.31 203.725 89.9356 207.39 88.8545 210.001H88.101C89.5658 206.43 89.4816 199.462 89.374 197.833C89.0698 193.059 88.7 188.576 87.8904 183.55C87.8623 183.39 88.1244 183.381 88.1572 183.526C89.5846 189.591 90.5533 196.125 90.3568 202.349Z" fill="#50290E"/>
<path d="M42.5178 188.627C41.0576 194.941 41.769 201.731 43.1636 207.979C43.3087 208.658 43.4725 209.332 43.6316 210.001H42.8735C40.8096 201.291 40.1778 192.278 43.8095 183.83C43.8563 183.727 44.0107 183.83 43.9686 183.919C43.3661 185.45 42.8811 187.023 42.5178 188.627Z" fill="#50290E"/>
<path d="M126.22 89.856L117.936 116.223C117.604 116.991 117.964 117.655 118.732 117.697L132.528 118.484C132.951 118.477 133.363 118.351 133.716 118.118C134.069 117.886 134.349 117.558 134.522 117.173L142.787 90.8248C143.119 90.0526 142.759 89.3927 141.991 89.3506L128.232 88.5643C127.808 88.5655 127.394 88.6877 127.037 88.9165C126.681 89.1454 126.397 89.4713 126.22 89.856Z" fill="#37474F"/>
<path d="M127.858 89.9543L119.593 116.303C119.26 117.07 119.621 117.73 120.393 117.777L134.185 118.563C134.608 118.556 135.02 118.429 135.374 118.197C135.727 117.965 136.008 117.638 136.183 117.253L144.444 90.8996C144.776 90.1321 144.42 89.4956 143.648 89.4301L129.851 88.6392C129.429 88.6476 129.017 88.7757 128.664 89.0084C128.311 89.2412 128.032 89.5691 127.858 89.9543Z" fill="#455A64"/>
<path d="M131.569 91.391C131.55 91.6227 131.464 91.8438 131.32 92.0262C131.176 92.2086 130.981 92.3442 130.76 92.4158C130.539 92.4874 130.301 92.4919 130.078 92.4285C129.854 92.3652 129.654 92.237 129.504 92.0601C129.353 91.8831 129.258 91.6655 129.231 91.4346C129.204 91.2038 129.246 90.9701 129.352 90.7632C129.458 90.5563 129.623 90.3855 129.826 90.2723C130.029 90.1591 130.261 90.1087 130.492 90.1274C130.803 90.1525 131.09 90.2997 131.292 90.5366C131.494 90.7735 131.593 91.0808 131.569 91.391Z" fill="#50290E"/>
<path d="M79.4336 127.815C86.14 144.949 102.235 167.684 109.479 168.255C112.924 168.531 119.026 169.762 123.814 166.098C134.26 158.104 143.606 142.108 145.913 132.753C146.737 129.425 130.834 121.053 128.232 123.632C122.148 129.678 114.73 141.841 113.724 141.701C110.036 141.177 96.3237 128.129 86.7625 118.961C75.1561 107.823 76.752 120.987 79.4336 127.815Z" fill="#FFBBAC"/>
<path d="M147.467 115.381C146.184 108.426 144.79 106.84 146.821 100.405C148.155 96.1927 146.03 93.5111 142.759 96.759C137.405 102.066 137.175 111.384 138.027 114.637L147.467 115.381Z" fill="#FFBBAC"/>
<path d="M144.921 135.636C144.921 135.636 148.599 126.309 147.968 118.788C147.528 113.574 145.309 102.333 131.237 95.5469C127.9 93.937 122.003 94.0118 126.5 98.6216C129.692 101.898 132.711 103.007 134.222 105.249C134.222 105.249 126.734 106.231 125.246 109.638C123.954 112.618 122.873 115.684 122.012 118.816C122.549 119.105 123.104 119.36 123.674 119.579C123.674 119.579 122.387 122.813 124.525 127.661L144.921 135.636Z" fill="#FFBBAC"/>
<path d="M146.755 113.855C144.785 111.946 140.54 107.972 135.935 105.927C130.825 103.657 120.36 100.662 118.722 104.453C117.524 107.233 121.418 108.73 121.418 108.73C121.418 108.73 116.832 108.403 116.298 111.15C115.83 113.654 118.891 114.632 118.891 114.632C118.891 114.632 116.083 114.913 116.083 117.417C116.083 120.426 121.975 119.345 124.605 122.401C125.185 123.084 146.755 113.855 146.755 113.855Z" fill="#FFBBAC"/>
<path d="M134.438 111.73C132.29 110.237 126.543 108.103 121.512 108.66C121.395 108.66 121.343 108.763 121.451 108.773C125.879 109.246 130.234 110.255 134.419 111.777C134.447 111.791 134.461 111.744 134.438 111.73Z" fill="#50290E"/>
<path d="M131.976 116.827C129.992 115.727 123.973 113.794 118.872 114.529C118.76 114.529 118.713 114.641 118.821 114.651C123.259 114.893 127.655 115.639 131.925 116.874C131.931 116.88 131.939 116.885 131.949 116.885C131.958 116.885 131.967 116.882 131.974 116.876C131.98 116.87 131.985 116.861 131.985 116.852C131.985 116.843 131.982 116.834 131.976 116.827Z" fill="#50290E"/>
<path d="M100.367 129.21L97.812 132.313L97.2832 132.959L87.048 145.323C87.048 145.323 77.7863 130.198 75.9143 121.596C74.7958 116.448 75.6007 113.382 77.8518 112.825C78.0194 112.786 78.1901 112.761 78.3619 112.751C79.8174 112.624 81.7737 113.392 84.1137 115.119C90.7031 119.986 100.367 129.21 100.367 129.21Z" fill="#83B9D2"/>
<path d="M99.7964 128.7C99.5601 129.476 99.2708 130.234 98.9306 130.97L100.335 129.285C100.338 129.265 100.338 129.244 100.335 129.224C100.292 129.14 100.101 128.957 99.7964 128.7ZM84.0763 115.128C83.1667 115.706 82.3334 116.397 81.5959 117.183C79.354 119.529 78.1005 122.647 78.0952 125.892C78.1021 126.763 78.1583 127.634 78.2637 128.499C78.4946 129.032 78.7286 129.566 78.9657 130.099C78.9236 129.753 78.8768 129.411 78.83 129.06C78.5037 127.192 78.4784 125.283 78.7551 123.407C79.0508 121.928 79.6138 120.514 80.4165 119.237C81.4056 117.641 82.7234 116.274 84.2822 115.226C84.2213 115.189 84.1699 115.147 84.1137 115.105L84.0763 115.128Z" fill="white"/>
<path d="M85.059 140.18C85.6113 138.879 91.2975 131.068 96.0336 126.107C96.0479 126.091 96.068 126.081 96.0895 126.08C96.111 126.079 96.1322 126.086 96.1483 126.1C96.1644 126.115 96.1742 126.135 96.1756 126.156C96.1769 126.178 96.1696 126.199 96.1553 126.215C95.6873 126.823 86.3273 139.37 85.2228 140.32C85.1339 140.4 85.0216 140.274 85.059 140.18Z" fill="#50290E"/>
<path opacity="0.05" d="M93.6 137.419L87.048 145.319C87.048 145.319 77.7862 130.198 75.9142 121.596C74.6226 115.662 75.8815 112.507 78.9562 112.746L93.6 137.419Z" fill="black"/>
<path d="M95.472 184.013C94.1616 185.417 38.7551 191.337 38.4368 190.953C37.5897 189.919 42.6863 133.923 65.3843 113.41C69.3857 109.797 76.4525 110.827 79.7285 112.685C81.3618 113.621 84.2072 121.352 86.9918 130.389C89.0978 137.292 96.2769 183.105 95.472 184.013Z" fill="#83B9D2"/>
<path d="M95.472 184.013C95.1819 184.326 92.196 184.869 87.736 185.515L87.2305 185.585C84.9748 185.908 82.3727 186.255 79.5647 186.606L78.9563 186.685C70.9395 187.691 61.3782 188.768 53.5533 189.591L53.3005 189.615C44.8765 190.504 38.5445 191.084 38.4369 190.953C38.3292 190.822 38.3292 188.487 38.6989 184.809C38.6989 184.654 38.7317 184.49 38.7457 184.341C39.6303 175.837 42.0826 160.388 47.0715 145.445C47.151 145.202 47.2353 144.977 47.3148 144.72C48.8077 140.265 50.569 135.904 52.5892 131.662C52.65 131.536 52.7062 131.414 52.7717 131.288C54.7493 127.127 57.132 123.17 59.8853 119.476C59.9789 119.354 60.0678 119.237 60.1661 119.125C61.7309 117.07 63.4773 115.161 65.3843 113.42C65.919 112.943 66.5118 112.536 67.1487 112.208C67.2937 112.133 67.4435 112.063 67.5933 111.997C69.5889 111.159 71.7632 110.837 73.9159 111.061L74.4495 111.117C76.295 111.298 78.0878 111.835 79.7285 112.699C80.3697 113.069 81.2027 114.482 82.1434 116.63C82.1902 116.724 82.2323 116.827 82.2744 116.93C83.6784 120.206 85.3586 125.092 86.9919 130.404C87.5675 132.276 88.5269 137.049 89.5893 143.002L89.6595 143.405C90.0292 145.459 90.4083 147.659 90.7873 149.924C90.8435 150.247 90.8997 150.565 90.9511 150.888C91.7233 155.512 92.4955 160.37 93.1835 164.9C93.2069 165.082 93.235 165.27 93.2677 165.447C93.8481 169.322 94.3629 172.935 94.7607 175.926C94.7887 176.165 94.8168 176.394 94.8496 176.628C95.3784 180.924 95.6499 183.793 95.472 184.013Z" fill="#83B9D2"/>
<path d="M77.4447 178.584C76.5005 177.264 75.2985 176.15 73.9113 175.308C72.4213 174.442 70.7783 173.872 69.0722 173.628C67.2844 173.319 65.4077 173.16 63.7323 172.383C62.1317 171.658 61.0085 170.361 59.89 169.056C59.5952 168.714 59.291 168.372 58.9821 168.045C59.3331 167.806 59.6888 167.577 60.0538 167.338C62.1551 166.046 64.4764 165.073 66.4186 163.538C68.1764 162.175 69.407 160.245 69.9005 158.076C70.3726 155.939 70.2099 153.711 69.4325 151.665C68.6072 149.6 67.2471 147.793 65.492 146.428C63.6926 145.05 61.6353 144.047 59.4416 143.478C57.248 142.909 54.9625 142.785 52.7203 143.114C50.8442 143.365 49.0169 143.898 47.3008 144.696C47.2213 144.94 47.137 145.164 47.0575 145.422C47.8893 145.003 48.7532 144.651 49.6408 144.369C53.9225 142.962 58.585 143.289 62.6278 145.281C64.5776 146.251 66.2649 147.677 67.5465 149.437C68.7796 151.178 69.4744 153.243 69.5449 155.376C69.6424 157.484 69.0383 159.564 67.8273 161.292C66.4233 163.196 64.2845 164.348 62.2534 165.447C60.9992 166.131 59.7824 166.851 58.5983 167.652C57.9137 166.942 57.0922 166.378 56.1835 165.995C54.6738 165.444 53.0197 165.434 51.5035 165.967C48.2041 167.076 46.2431 170.272 45.8641 173.628C45.6792 175.499 45.8962 177.388 46.5005 179.169C45.1251 180.579 43.5871 181.82 41.9188 182.866C40.9172 183.485 39.8417 183.976 38.7177 184.326C38.7177 184.486 38.6849 184.649 38.6709 184.794C38.8721 184.738 39.0734 184.677 39.2699 184.607C42.1388 183.639 44.5256 181.776 46.6831 179.684C47.2837 181.308 48.0689 182.858 49.0231 184.303C50.2584 186.21 51.6854 187.985 53.2819 189.601L53.5346 189.577C52.6117 188.603 51.7474 187.575 50.9465 186.498C49.2688 184.345 47.9377 181.943 47.0013 179.38C47.8016 178.584 48.5738 177.756 49.3413 176.937C50.8202 175.327 52.2757 173.661 53.8528 172.158C55.3232 170.745 56.909 169.457 58.5937 168.307C59.5999 169.379 60.4657 170.591 61.5608 171.583C62.8529 172.656 64.4063 173.368 66.0629 173.647C67.7805 174.007 69.5495 174.152 71.239 174.672C72.7433 175.146 74.1251 175.945 75.2872 177.012C76.4586 178.055 77.3973 179.332 78.0424 180.762C78.6874 182.192 79.0243 183.741 79.0312 185.309C79.0281 185.771 78.9922 186.233 78.9236 186.69L79.532 186.61C79.8685 183.768 79.1234 180.903 77.4447 178.584ZM56.015 169.547C54.2411 171.008 52.5783 172.599 51.0401 174.307C49.6361 175.814 48.2836 177.391 46.8281 178.865C46.5716 178.033 46.393 177.179 46.2946 176.314C45.9296 173.038 46.9264 169.294 49.7438 167.338C51.0307 166.432 52.5795 165.973 54.1523 166.032C55.6937 166.139 57.1395 166.818 58.2052 167.937C57.4611 168.447 56.7263 168.976 56.015 169.547ZM93.1601 164.867C91.5409 166.163 90.0011 167.577 88.19 168.611C85.5832 170.099 81.9983 170.89 79.6256 168.527C78.6371 167.567 78.0415 166.274 77.955 164.899C77.8685 163.524 78.2972 162.166 79.1576 161.09C80.0936 159.78 81.2495 158.68 82.1575 157.346C82.9018 156.231 83.5515 155.055 84.0997 153.832C85.2623 154.181 86.5076 154.136 87.6424 153.705C89.0271 153.149 90.182 152.139 90.9184 150.841C90.8669 150.518 90.8108 150.2 90.7546 149.877C90.3877 150.596 89.9143 151.255 89.3506 151.833C88.8305 152.387 88.1934 152.817 87.4858 153.093C86.7782 153.369 86.0179 153.484 85.2603 153.429C84.9539 153.398 84.6503 153.343 84.3524 153.265C84.4226 153.12 84.4881 152.97 84.5536 152.797C85.8687 149.793 86.9685 146.615 89.0371 144.013C89.2207 143.779 89.4159 143.554 89.6221 143.339L89.5519 142.937C87.605 144.958 86.3507 147.588 85.2416 150.13C84.8063 151.127 84.3805 152.128 83.9171 153.12C82.8782 152.75 81.9372 152.148 81.1653 151.361C78.6241 148.773 78.4322 144.776 78.6943 141.369C78.8627 139.291 79.1623 137.222 79.2652 135.144C79.2873 133.093 79.1307 131.043 78.7972 129.018C78.4709 127.15 78.4457 125.241 78.7223 123.365C79.018 121.885 79.581 120.472 80.3837 119.195C80.9013 118.346 81.517 117.56 82.2183 116.855C82.1762 116.752 82.1341 116.649 82.0873 116.555C81.9094 116.724 81.7363 116.897 81.5631 117.08C79.3085 119.456 78.0651 122.616 78.0952 125.892C78.0952 128.026 78.5211 130.127 78.6849 132.252C78.7964 134.441 78.6913 136.636 78.3713 138.804C77.9361 142.59 77.5477 146.76 79.5226 150.205C80.4549 151.825 81.9228 153.069 83.6738 153.724C83.4538 154.192 83.2292 154.66 82.9858 155.091C82.5555 155.89 82.074 156.66 81.5444 157.398C81.0436 158.081 80.482 158.718 79.9298 159.359C78.9142 160.543 77.8799 161.834 77.5898 163.398C77.3407 164.74 77.5483 166.127 78.1795 167.338C78.7889 168.566 79.8112 169.54 81.067 170.09C82.5873 170.676 84.2632 170.721 85.8125 170.216C88.7422 169.36 90.9605 167.296 93.2678 165.433C93.2116 165.255 93.1835 165.068 93.1601 164.886V164.867ZM94.8262 176.595C93.352 175.425 91.7795 174.255 89.8514 174.101C88.9088 173.992 87.9587 174.227 87.1744 174.761C86.4574 175.302 85.9233 176.05 85.6441 176.904C85.0055 178.785 85.0804 180.835 85.8547 182.665C86.3014 183.727 86.9355 184.701 87.7267 185.539L87.2212 185.609C86.6958 185.04 86.2387 184.412 85.8593 183.737C85.3221 182.774 84.9652 181.721 84.8063 180.629C84.5162 178.734 84.8063 176.6 86.0512 175.079C87.4037 173.431 89.608 173.263 91.5034 173.956C92.6842 174.433 93.7808 175.096 94.7513 175.921C94.7654 176.151 94.7935 176.385 94.8262 176.614V176.595ZM73.9441 111.824C74.1125 111.59 74.267 111.356 74.4121 111.103L73.8785 111.047C72.7926 112.713 71.5017 114.237 70.0363 115.582L69.7461 115.858C69.4511 114.824 68.9878 113.845 68.3749 112.961C68.1277 112.616 67.8539 112.29 67.5559 111.988C67.4061 112.053 67.2563 112.123 67.1113 112.198C68.0921 113.196 68.8191 114.414 69.2313 115.75C69.2781 115.905 69.3202 116.059 69.3623 116.218C68.0946 117.475 66.6107 118.493 64.9819 119.223C63.4468 119.845 61.5748 119.972 60.1287 119.12C60.0304 119.232 59.9415 119.349 59.8479 119.471C61.0448 120.158 62.4539 120.376 63.8025 120.084C65.9506 119.677 67.7852 118.259 69.3904 116.85L69.4981 116.757C70.172 119.649 69.9193 122.7 70.3732 125.649C70.8927 129.004 72.5026 132.397 71.6743 135.832C71.4018 137.179 70.6687 138.389 69.601 139.253C68.9581 139.693 68.2188 139.971 67.4456 140.064C66.6725 140.156 65.8884 140.062 65.1597 139.787C61.8463 138.725 59.9134 135.575 57.1709 133.637C55.765 132.726 54.2801 131.943 52.7343 131.297C52.6688 131.424 52.6126 131.545 52.5518 131.672C53.4878 132.116 54.4238 132.533 55.2755 133.006C55.9457 133.359 56.5872 133.764 57.1943 134.218C57.9039 134.775 58.5791 135.376 59.2161 136.015C60.4844 137.25 61.7293 138.565 63.2737 139.469C64.6777 140.288 66.3578 140.807 67.9864 140.494C68.685 140.339 69.3429 140.038 69.9165 139.611C70.4901 139.183 70.9664 138.639 71.3139 138.013C72.0268 136.748 72.3948 135.318 72.3809 133.867C72.3809 131.995 71.8708 130.123 71.4169 128.312C71.1605 127.348 70.9559 126.372 70.8038 125.387C70.6821 124.516 70.6119 123.646 70.5604 122.77C70.5082 121.037 70.3645 119.308 70.1299 117.59C70.0643 117.192 69.9848 116.799 69.8912 116.406C71.4089 115.034 72.7683 113.498 73.9441 111.824Z" fill="white"/>
<path d="M59.9929 121.212C50.8716 140.199 38.6614 187.383 36.869 194.318C35.6475 199.026 60.2316 203.795 60.8821 200.524C61.6309 196.78 71.033 141.556 70.097 121.666C69.5869 110.78 63.1472 114.66 59.9929 121.212Z" fill="#FFBBAC"/>
<path d="M61.1863 198.348C60.8962 201.923 58.8463 209.196 57.1241 210.38C55.4019 211.564 45.9529 211.826 41.2121 212.079C36.4713 212.332 35.451 211.068 35.4417 209.416C35.4323 207.764 45.396 206.94 45.396 206.94C45.396 206.94 32.292 211.456 28.9739 212.252C25.6558 213.048 18.0508 215.402 16.8059 212.687C16.2069 211.461 18.252 210.085 18.252 210.085C18.252 210.085 15.0649 211.199 14.4659 209.617C13.7826 207.815 16.3051 206.673 16.3051 206.673C16.3051 206.673 14.3021 207.188 14.1804 205.695C13.8996 202.368 26.4701 200.079 26.4701 200.079C26.4701 200.079 17.0259 205.307 16.5719 202.602C15.9448 198.858 35.5867 193.682 37.5664 191.931C39.0052 190.599 40.3398 189.158 41.5584 187.621L61.1863 198.348Z" fill="#FFBBAC"/>
<path d="M35.568 210.24C35.5228 210.009 35.534 209.77 35.6008 209.544C35.6677 209.319 35.7881 209.112 35.9518 208.943C36.2768 208.613 36.6549 208.339 37.0703 208.134C37.9277 207.711 38.8222 207.367 39.7426 207.109C41.5912 206.533 43.4866 206.098 45.3586 205.503C43.3814 205.576 41.4217 205.901 39.5273 206.472C38.5605 206.747 37.6373 207.157 36.7848 207.689C36.344 207.962 35.9647 208.324 35.671 208.751C35.5274 208.97 35.4426 209.221 35.4245 209.482C35.4065 209.743 35.4559 210.004 35.568 210.24Z" fill="#50290E"/>
<path d="M18.2521 210.085C19.6046 209.678 20.9337 209.219 22.2582 208.761C23.5826 208.302 24.9024 207.825 26.2221 207.357L30.1674 205.887C31.4824 205.419 32.7928 204.914 34.122 204.441C32.7294 204.669 31.3536 204.99 30.0036 205.401C28.6464 205.784 27.3172 206.252 25.9928 206.73C24.6684 207.207 23.3626 207.731 22.0756 208.297C20.7886 208.864 19.5016 209.421 18.2521 210.085Z" fill="#50290E"/>
<path d="M30.7336 201.273C29.448 201.425 28.1749 201.669 26.9241 202.003C25.6688 202.325 24.4315 202.714 23.2175 203.168C22.0017 203.616 20.8126 204.133 19.6561 204.717C18.494 205.289 17.3742 205.943 16.3052 206.673C17.5079 206.205 18.6733 205.653 19.8667 205.185C21.0601 204.717 22.2488 204.249 23.4515 203.781C24.6543 203.313 25.8617 202.906 27.0692 202.48C28.2766 202.054 29.5075 201.675 30.7336 201.273Z" fill="#50290E"/>
<path d="M28.6088 198.198C26.5331 198.468 24.5018 199.009 22.567 199.808C20.6153 200.568 18.7726 201.583 17.0867 202.827C19.0195 202.022 20.8962 201.184 22.815 200.43C24.7338 199.677 26.676 198.942 28.6088 198.198Z" fill="#50290E"/>
<path d="M70.5697 143.025L48.658 143.133C48.658 143.133 54.6062 125.522 60.269 118.245C65.9318 110.967 70.4761 111.927 70.9816 120.491C71.487 129.056 70.5697 143.025 70.5697 143.025Z" fill="#83B9D2"/>
<path d="M70.9815 120.491C71.0096 120.88 71.0283 121.287 71.0424 121.694C71.0424 121.877 71.0424 122.059 71.0704 122.246C71.3793 130.825 70.5744 143.025 70.5744 143.025L64.6214 143.058H64.027L48.6626 143.142C48.6626 143.142 51.1851 135.654 54.4986 128.457C54.6109 128.218 54.7185 127.989 54.8402 127.736C56.5297 124.123 58.411 120.636 60.2643 118.254C65.9318 110.967 70.4714 111.932 70.9815 120.491Z" fill="#83B9D2"/>
<path d="M52.8138 143.114L57.2645 143.086C55.7854 142.913 54.2906 142.923 52.8138 143.114ZM70.8178 125.368C70.6961 124.497 70.6259 123.627 70.5744 122.752C70.5222 121.018 70.3785 119.289 70.1439 117.571C70.0784 117.173 69.9988 116.78 69.9052 116.387C69.9894 116.303 70.0784 116.228 70.1673 116.139C70.1018 115.97 70.0362 115.811 69.966 115.671C69.9005 115.741 69.8256 115.802 69.7601 115.872C69.6334 115.422 69.4771 114.981 69.2921 114.552C69.037 114.219 68.719 113.939 68.3561 113.729C68.7489 114.367 69.0632 115.051 69.2921 115.764C69.3389 115.919 69.381 116.073 69.4232 116.232C68.1554 117.489 66.6715 118.507 65.0427 119.237C63.3813 119.916 61.3221 120.005 59.8385 118.9C59.7496 119.022 59.6654 119.139 59.5811 119.265C60.2 119.689 60.8993 119.982 61.6358 120.126C62.3724 120.269 63.1305 120.26 63.8633 120.098C66.0114 119.691 67.846 118.273 69.4512 116.864L69.5589 116.771C70.2328 119.663 69.9801 122.714 70.434 125.663C70.6072 126.758 70.902 127.862 71.1735 128.967C71.1735 128.344 71.1735 127.722 71.1735 127.095C71.0097 126.505 70.8974 125.939 70.8178 125.368ZM69.615 139.23C68.9721 139.669 68.2328 139.947 67.4597 140.04C66.6865 140.133 65.9024 140.038 65.1737 139.764C61.8603 138.701 59.9274 135.552 57.185 133.614C55.9122 132.78 54.5667 132.063 53.1648 131.471C53.104 131.597 53.0525 131.728 52.9964 131.859C53.7732 132.229 54.5548 132.589 55.2896 132.987C55.9597 133.34 56.6013 133.746 57.2084 134.199C57.9179 134.757 58.5931 135.357 59.2301 135.996C60.4984 137.232 61.7433 138.547 63.2877 139.45C64.6917 140.269 66.3718 140.788 68.0004 140.475C69.1108 140.24 70.1041 139.624 70.8084 138.734C70.8084 138.458 70.8365 138.168 70.8459 137.868C70.5263 138.396 70.1085 138.859 69.615 139.23Z" fill="white"/>
<path d="M51.48 138.06C52.884 137.629 62.9975 136.96 70.1672 137.438C70.1896 137.438 70.211 137.446 70.2268 137.462C70.2426 137.478 70.2515 137.499 70.2515 137.522C70.2515 137.544 70.2426 137.566 70.2268 137.581C70.211 137.597 70.1896 137.606 70.1672 137.606C69.3763 137.653 52.9776 138.542 51.48 138.289C51.3349 138.285 51.3583 138.111 51.48 138.06Z" fill="#50290E"/>
<path d="M71.9597 129.744C71.9597 129.729 71.9538 129.714 71.9432 129.704C71.9327 129.693 71.9184 129.687 71.9035 129.687C71.8886 129.687 71.8743 129.693 71.8638 129.704C71.8533 129.714 71.8473 129.729 71.8473 129.744C71.647 130.489 71.4908 131.245 71.3793 132.009C71.3466 132.182 71.3232 132.36 71.2904 132.533C71.2296 130.661 71.1407 128.84 71.0424 127.006C71.0424 126.922 70.902 126.922 70.9067 127.006C70.9628 133.366 70.7943 139.174 70.4059 142.852L68.5058 143.011C68.4794 143.017 68.4556 143.031 68.4385 143.052C68.4214 143.073 68.4121 143.099 68.4121 143.126C68.4121 143.153 68.4214 143.179 68.4385 143.2C68.4556 143.221 68.4794 143.235 68.5058 143.241L70.9207 143.325C71.0237 143.325 71.4261 138.027 71.3279 133.853C71.4589 133.249 71.5993 132.65 71.6976 132.042C71.8435 131.283 71.9311 130.515 71.9597 129.744Z" fill="#50290E"/>
<path d="M51.6204 143.138C50.6329 143.199 49.6454 143.25 48.6626 143.278H48.4661L48.5269 143.086C48.9107 141.879 49.3038 140.676 49.7343 139.487C50.1649 138.299 50.6001 137.105 51.0681 135.931C51.5361 134.756 52.0041 133.591 52.5517 132.43C53.0993 131.269 53.6234 130.132 54.2365 129.023L52.8325 132.561L51.4847 136.099L50.1368 139.642L48.7937 143.208L48.6626 143.021C49.6454 143.025 50.6329 143.077 51.6204 143.138Z" fill="#50290E"/>
<path d="M78.3807 122.387C75.0485 123.486 68.7586 118.802 66.0863 114.796C65.9038 114.52 66.0863 102.876 65.8991 100.569C65.857 100.101 80.7207 102.824 80.7207 102.824C80.7207 102.824 79.7145 107.794 80.0889 111.819C80.1263 112.156 81.6005 121.324 78.3807 122.387Z" fill="#FFBBAC"/>
<path d="M80.7254 102.82C80.7254 102.89 80.6552 103.18 80.5803 103.648C80.4493 104.444 80.2527 105.731 80.1357 107.191C79.9913 108.725 79.9803 110.269 80.103 111.805C80.1077 111.912 80.1202 112.018 80.1404 112.123V112.175C80.1732 112.362 80.2012 112.615 80.234 112.914C79.7719 113.018 79.3025 113.085 78.83 113.116C70.9161 113.621 67.4155 104.163 66.3578 100.503L66.6105 100.526C66.999 100.554 67.5138 100.615 68.1315 100.695L68.5995 100.76C69.587 100.901 70.7664 101.088 71.9925 101.285C72.395 101.35 72.7975 101.411 73.2093 101.486C74.0891 101.64 74.9784 101.79 75.802 101.926C76.1577 101.996 76.5087 102.057 76.8363 102.113C77.1639 102.169 77.5617 102.239 77.894 102.295L78.362 102.38L78.5913 102.426L79.8222 102.646L80.4118 102.749C80.4956 102.763 80.5784 102.782 80.6599 102.806C80.6833 102.806 80.6926 102.806 80.702 102.806L80.7254 102.82Z" fill="#50290E"/>
<path d="M63.0537 83.6035C61.6497 88.8124 64.8602 103.615 68.6369 106.816C74.1219 111.454 82.8501 111.627 86.7392 105.103C90.4832 98.7808 85.9763 79.5553 81.7784 76.6724C75.5914 72.4277 65.1316 75.9096 63.0537 83.6035Z" fill="#FFBBAC"/>
<path d="M65.2018 98.0928C67.846 97.241 66.676 90.3614 66.676 90.3614C66.676 90.3614 69.8303 88.4894 69.7882 82.0498C69.7882 82.0498 73.1952 87.7921 84.2166 84.4132C84.2069 82.3564 83.5522 80.3545 82.3446 78.6895C83.804 80.4295 85.1188 82.2859 86.2758 84.24C86.2758 84.24 87.2914 74.412 78.7083 72.54C75.2919 71.7959 70.5042 72.9284 63.8025 77.8752C63.8025 77.8752 61.6076 73.724 60.8634 74.4541C60.1193 75.1842 62.4874 79.0031 62.4874 79.0031C62.4874 79.0031 59.0804 78.5819 58.6592 79.3541C58.2941 80.0186 61.5514 80.2901 61.5514 80.2901C61.5514 80.2901 56.8714 82.7471 58.7434 88.2929C60.4235 93.366 63.8914 98.5187 65.2018 98.0928Z" fill="#DB5F05"/>
<path d="M62.4313 80.028C60.9987 80.2355 59.6913 80.9594 58.7553 82.0635C57.8192 83.1677 57.319 84.5759 57.3488 86.0231C57.4003 87.6751 58.1163 89.3412 58.9026 90.7733C59.788 92.2935 60.8654 93.6934 62.1084 94.9385C62.1739 95.0087 62.2768 94.8917 62.2066 94.8215C61.11 93.6386 60.2023 92.2937 59.5156 90.8341C58.7808 89.4737 58.2688 88.0043 57.9993 86.4817C57.8189 85.0644 58.1778 83.631 59.0048 82.4659C59.8319 81.3008 61.0665 80.4891 62.464 80.1918C62.4834 80.1852 62.4997 80.1718 62.5099 80.1541C62.5201 80.1364 62.5235 80.1156 62.5195 80.0955C62.5155 80.0755 62.5043 80.0576 62.4881 80.0452C62.4719 80.0327 62.4517 80.0266 62.4313 80.028Z" fill="#EB8032"/>
<path d="M71.9925 72.1235C70.1515 72.8996 68.4207 73.9145 66.8445 75.1421C65.2898 76.2366 63.9347 77.5901 62.8384 79.1435C62.7869 79.223 62.8899 79.3166 62.9554 79.2418C65.4124 76.6069 68.6135 74.6132 71.8474 73.0408C74.8566 71.5666 78.6147 70.8973 81.4976 73.0408C81.5017 73.0467 81.5072 73.0516 81.5136 73.055C81.52 73.0584 81.5271 73.0604 81.5344 73.0606C81.5416 73.0608 81.5488 73.0593 81.5554 73.0563C81.562 73.0532 81.5678 73.0487 81.5723 73.043C81.5769 73.0374 81.58 73.0307 81.5816 73.0236C81.5831 73.0165 81.5829 73.0092 81.5811 73.0021C81.5793 72.9951 81.5759 72.9886 81.5711 72.9831C81.5664 72.9776 81.5604 72.9733 81.5537 72.9706C78.8955 70.668 75.0672 70.8786 71.9925 72.1235Z" fill="#EB8032"/>
<path d="M66.8164 95.7294C66.8164 95.7294 63.3719 90.9605 61.2004 92.196C59.0289 93.4315 61.6684 100.377 64.2517 101.294C64.575 101.434 64.9234 101.508 65.2758 101.51C65.6283 101.513 65.9776 101.444 66.3028 101.308C66.628 101.172 66.9224 100.972 67.1683 100.719C67.4141 100.467 67.6065 100.167 67.7337 99.8384L66.8164 95.7294Z" fill="#FFBBAC"/>
<path d="M62.0053 94.1663C61.9632 94.1663 61.9585 94.2224 62.0053 94.2365C63.8165 94.9385 64.7899 96.5765 65.4779 98.3128C64.935 97.6576 64.2002 97.3019 63.3157 97.9524C63.2689 97.9852 63.3157 98.06 63.3625 98.046C63.6777 97.9404 64.0179 97.935 64.3364 98.0306C64.6548 98.1261 64.9358 98.3179 65.1409 98.5795C65.4787 99.0163 65.7704 99.4868 66.0114 99.9835C66.0956 100.143 66.3858 100.054 66.3249 99.8665C66.3241 99.8541 66.3241 99.8416 66.3249 99.8291C66.3109 97.5452 64.4763 94.3629 62.0053 94.1663Z" fill="#50290E"/>
<path d="M78.4883 92.1024C78.4883 92.0696 78.4227 92.1632 78.4274 92.2054C78.638 93.1882 78.7082 94.3535 77.8705 94.8402C77.8655 94.8424 77.8612 94.846 77.8582 94.8506C77.8552 94.8551 77.8536 94.8605 77.8536 94.8659C77.8536 94.8714 77.8552 94.8768 77.8582 94.8813C77.8612 94.8859 77.8655 94.8895 77.8705 94.8917C78.9516 94.536 78.8439 93.0056 78.4883 92.1024Z" fill="#50290E"/>
<path d="M77.4212 91.2272C75.8113 91.391 76.2512 94.6062 77.7441 94.4564C79.237 94.3067 78.7737 91.0915 77.4212 91.2272Z" fill="black"/>
<path d="M84.1558 90.9418C84.1558 90.9043 84.24 90.9792 84.2447 91.0213C84.3523 92.0182 84.6425 93.146 85.5878 93.3613C85.6159 93.3613 85.6206 93.4175 85.5878 93.4175C84.4646 93.4081 84.0949 91.9058 84.1558 90.9418Z" fill="#50290E"/>
<path d="M84.9046 89.7811C86.4911 89.4395 87.0574 92.6359 85.5879 92.9495C84.1184 93.263 83.5755 90.0666 84.9046 89.7811Z" fill="black"/>
<path d="M75.9143 90.324C76.3198 90.1412 76.7151 89.9365 77.0984 89.7109C77.5466 89.5563 77.9303 89.2565 78.1888 88.8592C78.2454 88.7194 78.2546 88.565 78.2148 88.4195C78.1751 88.2741 78.0887 88.1457 77.9689 88.0542C77.7016 87.9099 77.4007 87.8395 77.0971 87.8501C76.7936 87.8608 76.4984 87.9523 76.2419 88.115C75.6739 88.3629 75.2184 88.8133 74.9643 89.3786C74.9144 89.5111 74.9038 89.6552 74.9338 89.7936C74.9639 89.9319 75.0332 90.0587 75.1336 90.1586C75.234 90.2584 75.361 90.3272 75.4996 90.3565C75.6381 90.3859 75.7821 90.3746 75.9143 90.324Z" fill="#50290E"/>
<path d="M85.6815 88.0214C85.2375 87.9921 84.7954 87.9389 84.357 87.8623C83.8834 87.8718 83.4197 87.7255 83.0373 87.4458C82.9343 87.3349 82.871 87.1928 82.8575 87.0421C82.8439 86.8913 82.8808 86.7403 82.9624 86.6128C83.1611 86.3842 83.4173 86.2129 83.7045 86.1166C83.9917 86.0203 84.2994 86.0026 84.5957 86.0652C85.2169 86.0957 85.8037 86.3598 86.2384 86.8046C86.3331 86.9105 86.3949 87.0417 86.4162 87.1821C86.4374 87.3226 86.4173 87.4661 86.3582 87.5953C86.2991 87.7245 86.2036 87.8336 86.0834 87.9093C85.9632 87.985 85.8235 88.0239 85.6815 88.0214Z" fill="#50290E"/>
<path d="M78.6755 100.962C78.9469 101.163 79.2277 101.43 79.6115 101.43C79.9807 101.372 80.3334 101.237 80.6458 101.032C80.6785 101.032 80.716 101.032 80.6972 101.079C80.5815 101.294 80.41 101.473 80.2009 101.599C79.9918 101.725 79.7526 101.793 79.5085 101.795C79.298 101.769 79.0998 101.682 78.939 101.543C78.7782 101.405 78.6621 101.222 78.6053 101.018C78.5632 100.962 78.624 100.934 78.6755 100.962Z" fill="#50290E"/>
<path d="M79.312 97.8354C79.6189 98.1947 79.9969 98.4867 80.4222 98.6929C80.8475 98.8991 81.3108 99.015 81.783 99.0335C82.195 99.0545 82.6079 99.0166 83.0092 98.9212C83.0869 98.908 83.1635 98.8892 83.2385 98.865L83.4538 98.7995C83.5051 98.7822 83.5493 98.7486 83.5797 98.7038C83.6102 98.659 83.6251 98.6055 83.6223 98.5514L83.5989 98.4485V98.3596C83.5099 97.592 83.2759 96.4361 83.2759 96.4361C83.5755 96.539 85.0918 96.9836 85.0169 96.5858C84.3617 93.3098 83.6363 89.6407 82.2931 86.5051C82.2863 86.4809 82.2702 86.4604 82.2482 86.4481C82.2263 86.4358 82.2003 86.4328 82.1761 86.4396C82.1519 86.4464 82.1314 86.4626 82.1191 86.4845C82.1069 86.5065 82.1038 86.5324 82.1106 86.5566C82.6161 89.7437 83.6737 92.8184 84.2307 96.0102C83.6911 95.8411 83.1299 95.7512 82.5646 95.7434C82.4616 95.7902 83.056 97.9711 83.07 98.3174C83.0711 98.3299 83.0711 98.3424 83.07 98.3549C81.8064 98.6965 80.7815 98.4391 79.4103 97.7465C79.312 97.6856 79.2418 97.7652 79.312 97.8354Z" fill="#50290E"/>
<path d="M82.5037 98.5936C82.159 99.1987 81.6642 99.7048 81.067 100.063C80.7357 100.249 80.3541 100.326 79.9765 100.283C79.1528 100.185 79.0405 99.4594 79.092 98.8135C79.1269 98.4704 79.2023 98.1327 79.3166 97.8073C80.2679 98.4027 81.3847 98.6782 82.5037 98.5936Z" fill="#50290E"/>
<path d="M81.067 100.063C80.7357 100.249 80.3541 100.326 79.9765 100.283C79.1528 100.185 79.0405 99.4594 79.092 98.8135C79.9578 98.7854 80.8798 99.2441 81.067 100.063Z" fill="#FF9ABB"/>
</svg>
